<svg width="294" height="54" viewBox="0 0 294 54" fill="none" xmlns="http://www.w3.org/2000/svg">
  <path
    d="M39.6895 8.42893C113.371 6.73542 187.13 8.46742 260.657 13.548L262.428 6.19657C231.631 14.8566 198.486 14.1253 166.765 15.6264C133.428 17.2044 100.09 18.7055 66.7138 20.245C47.6582 21.0918 28.6027 21.9386 9.5471 22.7853C6.5829 22.9008 2.11735 23.6706 0.423525 26.5572C-1.15481 29.2515 1.77089 30.6371 4.15765 30.5986C76.5688 29.5594 149.211 28.5202 221.391 35.8331C241.986 37.9115 262.466 40.7981 282.869 44.4161L288.028 36.8723C213.114 45.8402 137.624 48.188 62.2482 44.3391C59.361 44.1852 54.78 45.3783 53.2017 48.0726C51.6233 50.7668 54.5875 51.9599 56.8973 52.1139C133.312 56.2707 210.112 53.5765 286.103 44.5316C288.451 44.2621 292.147 43.1075 293.456 40.8751C294.572 38.9507 293.34 37.3726 291.261 36.9877C219.081 23.9785 145.554 21.7461 72.3342 22.0925C51.3923 22.208 30.4505 22.5159 9.5086 22.8238L4.15765 30.6371C72.4497 27.5964 140.819 25.0177 209.072 21.1688C227.666 20.1296 246.26 18.2051 264.237 13.1631C268.703 11.9314 273.515 6.35053 266.008 5.81168C192.48 0.654164 118.76 -1.03935 45.079 0.615675C42.1148 0.692653 37.6107 1.53941 35.9554 4.38759C34.3771 7.08182 37.3028 8.50591 39.6895 8.42893Z"
    fill="#BF90EA"/>
</svg>
