<svg width="324" height="49" viewBox="0 0 324 49" fill="none" xmlns="http://www.w3.org/2000/svg">
  <path
    d="M79.9371 13.7007L225.377 6.48458L266.449 4.44708L268.061 1.03428L165.373 7.31655L62.6853 13.5988C43.2898 14.7874 23.8944 15.9759 4.49897 17.1644L3.65867 20.5263C41.9694 17.9115 80.3315 15.9929 118.711 14.7874C157.09 13.5819 195.452 13.0895 233.832 13.2932C255.439 13.4121 277.047 13.7516 298.637 14.312L300.249 10.8992L198.728 19.7962C164.893 22.7676 131.041 25.7219 97.2061 28.6933L40.0487 33.7021C39.0026 33.787 36.7218 34.4832 36.5675 35.7566C36.3788 37.1319 38.3338 37.1319 39.2084 37.064C75.6842 34.0926 112.229 32.0212 148.824 30.8836C185.42 29.746 221.69 29.5083 258.114 30.1705C278.676 30.544 299.22 31.2062 319.748 32.157L321.377 28.7272C282.14 31.5627 242.886 34.1606 203.615 36.4867C164.344 38.8128 125.296 40.8843 86.1107 42.7011C64.04 43.7198 41.9694 44.6706 19.8987 45.5366L18.2867 48.9494C55.1912 45.9611 92.1643 43.8896 129.172 42.718C166.179 41.5465 202.878 41.2748 239.731 41.903C260.567 42.2426 281.403 42.8709 302.221 43.7877C303.525 43.8387 305.583 43.3293 306.286 42.1238C306.989 40.9183 305.668 40.3749 304.622 40.324C267.512 38.694 230.367 37.9299 193.24 38.1167C156.113 38.3035 119.002 39.3901 81.9435 41.3597C60.9875 42.4803 40.0487 43.8896 19.1442 45.5705C18.0981 45.6554 16.1259 46.2837 15.7487 47.4213C15.3714 48.5589 16.5032 49.0343 17.515 48.9833C56.9575 47.4382 96.4001 45.6215 135.825 43.567C175.234 41.5125 214.608 39.2034 253.982 36.6565C276.172 35.2133 298.346 33.7021 320.519 32.0891C321.565 32.0212 323.555 31.376 323.915 30.2384C324.275 29.1008 323.143 28.7103 322.131 28.6593C285.45 26.9784 248.734 26.1973 212.018 26.3332C175.319 26.469 138.638 27.5387 101.991 29.5083C81.3261 30.6119 60.6617 32.0212 40.0315 33.6851L39.1912 37.047L140.713 28.1499C174.548 25.1786 208.4 22.2242 242.234 19.2529L299.392 14.244C300.438 14.1591 302.41 13.5309 302.77 12.3933C303.13 11.2557 301.999 10.8482 301.004 10.8312C262.35 9.82947 223.679 9.52384 185.026 9.94832C146.509 10.3728 107.993 11.5104 69.5105 13.3441C47.8172 14.3799 26.1238 15.6363 4.46467 17.1305C3.41859 17.1984 1.15493 17.9285 0.983442 19.185C0.794804 20.5773 2.74978 20.5433 3.62438 20.4754C37.8536 18.3869 72.0829 16.2985 106.312 14.1931L209 7.91082L267.186 4.36219C268.232 4.29427 270.204 3.63208 270.565 2.52844C270.925 1.4248 269.81 0.915423 268.798 0.96636L123.392 8.21645L82.3208 10.2539C80.9832 10.3219 79.011 10.6445 78.2565 11.9179C77.5705 13.0895 78.8396 13.7686 79.9199 13.7007H79.9371Z"
    fill="#EB7A53"/>
</svg>
