<svg xmlns="http://www.w3.org/2000/svg" width="180" height="189" viewBox="0 0 180 189" fill="none">
  <g clip-path="url(#clip0_938_5700)">
    <path
      d="M82.3666 50.4126C82.3666 33.1804 79.228 11.9614 62.0104 3.16812C43.5598 -6.26749 22.0827 7.04425 11.3441 21.8621C-13.3838 55.9499 6.59134 100.758 30.4673 129.397C45.1516 147.006 64.3196 161.868 71.8971 184.194C72.9059 187.185 81.5372 184.748 80.5507 181.891C74.3632 163.706 60.5532 150.018 47.6625 136.263C34.7717 122.509 23.8313 107.801 16.5228 90.6579C9.21433 73.5143 5.89636 55.0418 11.5683 37.4331C14.3931 28.7284 19.4149 20.6439 26.1853 14.3978C32.0142 9.03768 39.8159 4.07624 48.1332 5.09511C58.0199 6.29117 65.3957 14.6193 69.0051 23.2575C72.6145 31.8958 73.713 41.9737 73.713 51.4758C73.713 55.0196 82.3666 53.2034 82.3666 50.4126V50.4126Z"
      fill="#F6ECC9"/>
    <path
      d="M82.6353 50.8105C91.7149 34.9959 106.489 22.3486 123.437 15.3273C131.62 11.9385 140.431 9.90074 149.331 9.94504C151.55 9.94504 153.792 10.0779 155.989 10.3437C157.85 10.5874 161.123 10.6317 162.76 11.6062C164.396 12.5808 166.078 15.1058 167.199 16.7227C168.566 18.6719 169.598 20.7982 170.293 23.0574C172.916 31.5849 169.979 40.5554 165.809 48.1083C161.258 56.3256 155.205 63.6571 149.04 70.7227C141.664 79.1616 133.84 87.2239 126.576 95.7735C119.312 104.323 111.914 113.604 105.032 122.862C89.9662 143.129 76.4477 164.458 64.4761 186.63C62.5481 190.196 71.2017 189.288 72.5469 186.807C83.8011 165.942 96.4452 145.809 110.457 126.627C117.743 116.66 125.388 106.937 133.346 97.5012C141.305 88.0656 149.488 79.671 157.379 70.6119C163.97 63.0369 170.494 55.1296 175.023 46.137C179.058 38.1411 181.749 28.8605 178.744 20.0673C177.265 15.7925 174.149 10.3659 170.248 7.81871C168.477 6.6448 165.809 6.40115 163.724 6.04677C161.146 5.60378 158.545 5.31584 155.945 5.18294C145.789 4.60706 135.566 6.35686 125.993 9.59065C104.92 16.7006 85.6618 31.3856 74.6094 50.6333C72.6141 54.1107 81.2678 53.269 82.6801 50.8105H82.6353Z"
      fill="#F6ECC9"/>
  </g>
  <defs>
    <clipPath id="clip0_938_5700">
      <rect width="180" height="189" fill="white"/>
    </clipPath>
  </defs>
</svg>
