<svg width="534" height="14" viewBox="0 0 534 14" fill="none" xmlns="http://www.w3.org/2000/svg">
  <g clip-path="url(#clip0_819_4901)">
    <path
      d="M1.90653 8.46507C20.1415 7.69182 38.4213 7.30519 56.6563 6.12496C58.012 6.04356 60.0232 5.57554 60.783 3.78484C61.4981 2.09589 60.1722 1.24124 59.0846 1.26159C40.8496 1.64821 22.5997 2.8081 4.36468 3.6017C3.00897 3.66275 0.953062 4.17147 0.208167 5.96217C-0.506931 7.63077 0.818981 8.54647 1.92142 8.48542L1.90653 8.46507Z"
      fill="#D5B8F0"/>
    <path
      d="M72.568 7.34597C72.568 7.34597 72.7021 7.34597 72.7617 7.36632L72.0615 7.26457C72.2552 7.30527 72.434 7.34597 72.6276 7.42736L72.0466 7.16283C72.3297 7.28492 72.5829 7.46806 72.8213 7.6919L72.4042 7.28492C72.7766 7.6512 73.0746 8.09887 73.3129 8.62794L73.0895 8.09887C73.164 8.28201 73.2236 8.42445 73.2236 8.64829V8.03783C73.2236 8.28201 73.1938 8.50585 73.1193 8.72969L73.3427 8.09887C73.2831 8.28201 73.1938 8.4448 73.0895 8.60759L73.4917 7.99713C73.4172 8.09887 73.3278 8.20062 73.2534 8.30236L73.8195 7.73259C73.6854 7.87504 73.298 8.13957 73.8791 7.73259C74.4154 7.36632 74.2068 7.50876 74.0727 7.59015C73.8046 7.73259 75.0709 7.16283 74.6687 7.30527C74.3558 7.42736 75.7115 7.06108 75.1752 7.16283C74.8027 7.24422 76.0393 7.16283 75.7264 7.12213C75.6668 7.12213 75.6072 7.12213 75.5476 7.12213L76.2478 7.22387C76.1137 7.20353 75.9797 7.16283 75.8456 7.10178L76.4266 7.34597C76.2925 7.28492 76.1733 7.20353 76.0542 7.10178L76.4713 7.48841C76.2478 7.28492 76.084 7.00004 75.9499 6.6948L76.1733 7.22387C75.9797 6.75585 75.9052 6.24713 75.8903 5.69771V6.30818C75.8903 5.71806 76.0095 5.14829 76.1882 4.59887L75.9797 5.22969C76.1137 4.86341 76.2627 4.53783 76.4713 4.25294L76.0691 4.86341C76.2031 4.68027 76.3372 4.51748 76.4862 4.35469L75.9201 4.92446C76.0393 4.80236 76.1733 4.70062 76.3074 4.57853C76.5756 4.35469 75.5774 5.04655 75.8754 4.88376C75.935 4.84306 75.9946 4.80236 76.0542 4.78201C76.516 4.51748 75.5774 5.00585 75.5774 5.00585C75.637 4.9855 75.7115 4.9448 75.7711 4.92446C75.8307 4.90411 75.9052 4.88376 75.9648 4.86341C75.9648 4.86341 74.9815 5.1076 75.4731 5.00585C75.6072 4.9855 75.7413 4.9448 75.8903 4.9448C76.1286 4.92446 76.4862 4.96515 75.4582 4.96515C75.5327 4.96515 75.5923 4.96515 75.6668 4.96515C75.9797 4.96515 76.2925 4.9855 76.6054 5.0262L75.9052 4.92446C76.2031 4.96515 76.4862 5.04655 76.7693 5.16864L76.1882 4.92446C76.4117 5.0262 76.6203 5.14829 76.814 5.33143L76.3968 4.9448C76.5756 5.12794 76.7395 5.33143 76.8586 5.57562L76.6352 5.04655C76.7544 5.33143 76.8139 5.63666 76.8288 5.98259V5.37213C76.8288 5.67736 76.7693 5.9419 76.6799 6.22678L76.9033 5.59597C76.7842 5.92155 76.6203 6.20643 76.4415 6.49132L76.8437 5.88085C76.6352 6.18608 76.3968 6.47097 76.1435 6.71515L76.7097 6.14539C76.6054 6.24713 76.4862 6.34887 76.3819 6.45062C76.3372 6.49132 76.2925 6.51166 76.2478 6.55236C75.9052 6.8169 77.0076 6.04364 76.7097 6.22678C76.6054 6.28783 76.4862 6.36922 76.3819 6.43027C76.3223 6.47097 76.2627 6.49132 76.1882 6.53201C75.9052 6.67446 77.1715 6.10469 76.7395 6.26748C76.6203 6.30818 76.5011 6.34887 76.3968 6.38957C76.1137 6.49132 77.4099 6.14539 76.9778 6.22678C76.9331 6.22678 76.8735 6.24713 76.8288 6.26748C76.7693 6.26748 76.6948 6.26748 76.6352 6.28783C76.367 6.34887 77.5588 6.26748 77.1715 6.24713C77.0523 6.24713 76.9331 6.24713 76.814 6.22678L77.5141 6.32853C77.3503 6.30818 77.2013 6.26748 77.0523 6.18608L77.6333 6.45062C77.4844 6.38957 77.3652 6.28783 77.2311 6.18608L77.6482 6.59306C77.4695 6.43027 77.3354 6.22678 77.2162 5.96225L77.4397 6.49132C77.3056 6.16573 77.246 5.84015 77.2311 5.47387V6.08434C77.2311 5.79946 77.2907 5.53492 77.3652 5.27039L77.1417 5.9012C77.2162 5.67736 77.3205 5.47387 77.4397 5.27039L77.0374 5.88085C77.1417 5.71806 77.246 5.57562 77.3801 5.45353L76.814 6.02329C77.0523 5.79946 77.3056 5.73841 76.4266 6.24713C76.8288 6.00294 75.5625 6.59306 75.9052 6.47097C76.0542 6.40992 75.9648 6.43027 75.6072 6.55236C75.2944 6.65411 74.9815 6.6948 74.6538 6.67446C74.7431 6.67446 74.8474 6.67446 74.9368 6.67446L74.2366 6.57271C74.3856 6.59306 74.5346 6.65411 74.6836 6.71515L74.1025 6.45062C74.3111 6.55236 74.5048 6.6948 74.6836 6.85759L74.2664 6.45062C74.758 6.91864 75.0709 7.5698 75.4284 8.20062C75.7413 8.77039 76.6203 8.93318 77.0672 8.93318C77.7525 8.93318 78.408 8.77038 79.0635 8.46515C79.6297 8.20062 80.2703 7.83434 80.7023 7.24422C81.0747 6.7355 81.3727 6.20643 81.2982 5.45353C81.179 4.17155 80.3298 3.1948 79.585 2.56399C78.2888 1.4855 76.5458 1.6076 75.1305 2.09597C74.3707 2.3605 73.5513 2.80818 72.8958 3.41864C72.3297 3.94771 71.7189 4.59887 71.3613 5.43318C70.9442 6.43027 70.7207 7.6512 71.1379 8.72969C71.3017 9.15701 71.4656 9.52329 71.7487 9.82852C72.2254 10.3576 72.6723 10.6018 73.2683 10.8256C74.1621 11.1512 75.2348 11.1308 76.1286 10.9274C78.2143 10.4593 80.4043 9.3605 81.8792 7.22387C82.6241 6.14539 83.3243 4.80236 83.086 3.2355C82.9072 2.09597 82.1176 1.22097 81.3578 0.813991C80.3745 0.284921 79.3168 0.0814328 78.259 0.061084C77.0672 0.0407352 75.8158 0.223875 74.6836 0.712247C73.3874 1.28201 72.0168 2.05527 71.0634 3.43899C70.4228 4.35469 69.8864 5.41283 69.7077 6.67446C69.5736 7.59015 69.6034 8.66864 69.9311 9.50294C70.1099 9.97097 70.3036 10.439 70.6164 10.7646C71.0932 11.2936 71.555 11.5785 72.1509 11.782C73.6109 12.2704 75.3242 11.8634 76.665 11.0495C77.827 10.3372 78.989 9.29945 79.436 7.59015C79.5701 7.08143 79.5999 6.43027 79.436 5.9419C79.2125 5.33143 78.9443 4.74132 78.557 4.27329C77.5588 3.05236 76.3372 2.58434 75.0262 2.4826C74.2366 2.42155 73.2831 2.72678 72.5532 3.15411C72.0019 3.47969 71.1825 4.0698 70.8697 4.84306C70.6313 5.39248 70.4823 6.10469 70.8697 6.61341C71.3166 7.20353 71.9721 7.32562 72.568 7.36632V7.34597Z"
      fill="#D5B8F0"/>
    <path
      d="M98.0273 9.23841C113.298 8.79074 128.598 8.58725 143.868 7.91574C145.224 7.85469 147.25 7.34597 148.01 5.57562C148.77 3.80528 147.399 3.05237 146.311 3.05237C131.041 3.25586 115.756 3.90702 100.485 4.35469C99.1297 4.39539 97.0738 4.92446 96.3289 6.71516C95.584 8.50586 96.9397 9.27911 98.0422 9.23841H98.0273Z"
      fill="#D5B8F0"/>
    <path
      d="M170.179 5.1686C170.477 5.0872 170.76 5.20929 169.926 5.1686C169.464 5.0872 169.345 5.06685 169.553 5.10755C169.628 5.10755 169.687 5.14825 169.747 5.1686L169.434 5.02615C169.523 5.06685 169.598 5.1279 169.687 5.1686C169.806 5.24999 169.926 5.35174 170.03 5.45348L169.613 5.0465C169.866 5.31104 170.075 5.61627 170.253 6.0029V4.23255C170.045 4.70057 169.821 5.14825 169.568 5.59592C169.449 5.81976 169.315 6.02325 169.196 6.22674C169.032 6.49127 169.062 6.43022 169.3 6.06395C169.225 6.16569 169.166 6.26743 169.091 6.34883C168.808 6.73546 168.51 7.10174 168.198 7.44767C168.123 7.52906 168.034 7.61046 167.959 7.69185C167.736 7.91569 167.795 7.85464 168.168 7.48836C168.019 7.59011 167.87 7.7529 167.736 7.87499C167.602 7.99708 167.438 8.11918 167.289 8.24127C166.603 8.77034 167.81 7.93604 167.333 8.22092C167.155 8.32267 166.976 8.44476 166.782 8.5465C166.693 8.60755 166.603 8.64825 166.499 8.68895C166.186 8.85174 166.305 8.79069 166.886 8.50581C166.693 8.56685 166.499 8.6686 166.305 8.72964C166.216 8.77034 166.112 8.79069 166.008 8.83139C165.68 8.93313 165.814 8.89243 166.395 8.72964C166.291 8.74999 166.186 8.77034 166.082 8.79069C166.365 8.72964 166.663 8.72964 166.946 8.81104C166.693 8.72964 166.738 8.77034 167.08 8.89243C166.991 8.85174 166.916 8.79069 166.842 8.70929L167.259 9.09592C167.08 8.91278 166.946 8.72964 166.827 8.46511L167.05 8.99418C166.916 8.64825 166.857 8.30232 166.857 7.91569V8.52615C166.857 7.93604 166.991 7.38662 167.155 6.85755L166.946 7.48836C167.095 7.08139 167.274 6.67441 167.482 6.30813C167.527 6.22674 167.602 6.12499 167.646 6.0436C167.363 6.67441 167.378 6.40988 167.542 6.22674C167.602 6.16569 167.676 6.08429 167.721 6.0029C167.914 5.71802 167.17 6.51162 167.468 6.24709C167.661 6.08429 167.84 5.9215 168.019 5.75871C168.108 5.67732 168.212 5.61627 168.302 5.53488C168.391 5.45348 168.764 5.20929 168.302 5.53488C167.84 5.86046 168.227 5.59592 168.317 5.53488C168.406 5.47383 168.525 5.41278 168.615 5.35174C168.883 5.18895 169.702 4.90406 168.644 5.29069C168.853 5.20929 169.062 5.10755 169.285 5.0465C169.389 5.00581 169.494 4.98546 169.613 4.94476C170.06 4.80232 169.3 5.06685 169.255 5.0465C169.389 5.10755 169.762 4.94476 169.911 4.90406C170.015 4.90406 170.134 4.88371 170.239 4.86336C170.656 4.80232 170.015 4.92441 169.941 4.86336C170.09 4.92441 170.343 4.86336 170.492 4.86336C170.596 4.86336 171.043 4.92441 170.551 4.86336C170.104 4.80232 170.447 4.86336 170.551 4.86336C170.641 4.88371 170.73 4.92441 170.82 4.94476C171.088 5.00581 170.387 4.70057 170.626 4.86336C170.805 4.98546 170.983 5.0872 171.162 5.22964L170.745 4.82267C170.998 5.06685 171.207 5.35174 171.371 5.69767L171.147 5.1686C171.266 5.49418 171.326 5.79941 171.341 6.16569V5.55522C171.341 5.9622 171.281 6.32848 171.177 6.71511L171.386 6.08429C171.326 6.24709 171.013 6.81685 171.296 6.34883C171.624 5.84011 171.996 5.65697 172.458 5.39243C173.099 5.0872 173.293 4.98546 173.024 5.0465C172.563 5.1686 172.965 5.10755 174.246 4.82267C173.069 4.82267 171.55 5.29069 170.671 6.47092C170.417 6.7965 170.179 7.18313 170.075 7.65115C169.955 8.22092 170.283 8.93313 170.685 9.11627C172.131 9.74708 173.591 9.56395 174.976 8.70929C175.87 8.15988 176.794 7.32557 177.255 6.10464C177.851 4.51743 177.777 2.70639 176.704 1.52616C175.512 0.22383 173.889 -0.142449 172.399 -0.0814023C170.432 -7.00355e-06 168.54 0.529063 166.708 1.46511C165.233 2.19767 163.609 3.31685 162.477 4.82267C161.628 5.94185 160.793 7.46802 160.629 9.11627C160.451 10.8866 161.032 12.3517 162.268 13.0436C164.324 14.1831 166.708 13.2471 168.704 12.2907C171.699 10.8663 174.47 8.05813 176.123 4.33429C176.421 3.66278 176.421 3.21511 176.123 2.56395C175.11 0.40697 172.741 -0.101751 171.043 0.345923C170.209 0.56976 169.389 0.834295 168.659 1.44476C168.257 1.79069 167.542 2.52325 167.468 3.25581C167.289 5.10755 169.285 5.33139 170.194 5.10755L170.179 5.1686Z"
      fill="#D5B8F0"/>
    <path
      d="M168.332 8.07851C169.449 8.07851 171.148 7.59014 171.759 6.14537C172.369 4.7006 171.252 4.04944 170.343 4.04944C169.226 4.04944 167.528 4.53781 166.917 5.98258C166.306 7.42735 167.423 8.07851 168.332 8.07851Z"
      fill="#D5B8F0"/>
    <path
      d="M170.193 7.22383C171.311 7.22383 173.009 6.73546 173.62 5.29069C174.231 3.84593 173.113 3.19476 172.205 3.19476C171.087 3.19476 169.389 3.68314 168.778 5.1279C168.167 6.57267 169.285 7.22383 170.193 7.22383Z"
      fill="#D5B8F0"/>
    <path
      d="M169.568 8.07851C170.686 8.07851 172.384 7.59014 172.995 6.14537C173.606 4.7006 172.488 4.04944 171.58 4.04944C170.462 4.04944 168.764 4.53781 168.153 5.98258C167.542 7.42735 168.66 8.07851 169.568 8.07851Z"
      fill="#D5B8F0"/>
    <path
      d="M196.994 14L220.86 12.7791C228.816 12.3721 236.861 12.3517 244.801 11.4971C245.889 11.375 247.796 10.5 248.213 8.93312C248.63 7.36626 247.409 6.77614 246.425 6.75579C238.619 6.6744 230.753 7.5087 222.946 7.91568L199.452 9.11626C198.096 9.17731 196.055 9.68603 195.296 11.4767C194.595 13.1453 195.892 14.061 197.009 14H196.994Z"
      fill="#D5B8F0"/>
    <path
      d="M263.336 9.42155C263.336 9.42155 263.455 9.60469 263.499 9.70643L263.276 9.17737C263.35 9.36051 263.38 9.5233 263.38 9.72678V9.11632C263.38 9.31981 263.336 9.50295 263.276 9.68609L263.499 9.05527C263.425 9.25876 263.336 9.42155 263.231 9.58434L263.634 8.97388C263.634 8.97388 263.499 9.13667 263.425 9.21806C263.917 8.75004 264.051 8.62795 263.827 8.81109C263.574 9.01457 263.753 8.89248 264.349 8.44481C264.066 8.6076 264.274 8.50585 264.974 8.15992C265.719 7.97678 265.943 7.91574 265.63 7.97678C266.047 7.89539 266.464 7.91574 266.866 8.01748C266.822 8.01748 266.777 7.99713 266.732 7.97678L267.313 8.24132C267.224 8.20062 267.149 8.15992 267.075 8.07853L267.492 8.4855C267.328 8.32271 267.194 8.13957 267.105 7.89539L267.328 8.42446C267.209 8.11923 267.164 7.81399 267.149 7.46806V8.07853C267.149 7.6512 267.224 7.24423 267.343 6.8576L267.12 7.48841C267.209 7.22388 267.328 7.00004 267.462 6.7762L267.06 7.38667C267.06 7.38667 267.164 7.24423 267.224 7.16283C267.447 6.8576 266.807 7.56981 266.837 7.54946C267.179 7.24423 266.017 8.05818 266.405 7.85469L265.749 8.15992C265.958 8.07853 265.883 8.09888 265.511 8.22097C265.168 8.30237 265.064 8.32271 265.228 8.30236C265.481 8.26167 265.287 8.26167 264.676 8.34306C264.796 8.34306 265.138 8.38376 264.617 8.30236C264.051 8.22097 264.706 8.36341 264.84 8.42446L264.259 8.15992C264.587 8.32271 264.885 8.5262 265.153 8.79074L264.736 8.38376C265.123 8.77039 265.466 9.23841 265.719 9.78783L265.496 9.25876C265.615 9.54364 265.689 9.80818 265.689 10.1338V9.52329C265.689 9.72678 265.66 9.88957 265.6 10.0727L265.824 9.4419C265.779 9.56399 265.734 9.64539 265.675 9.74713L266.077 9.13667C266.077 9.13667 265.972 9.27911 265.928 9.34016C266.36 8.72969 266.524 8.77039 266.256 9.01457C265.928 9.29946 267.015 8.5262 266.717 8.68899C266.285 8.93318 267.298 8.42446 267.269 8.44481C267.179 8.46516 267.105 8.50585 267.015 8.54655C266.583 8.70934 267.984 8.32271 267.522 8.40411C267.358 8.42446 266.717 8.50585 267.403 8.44481C268.088 8.38376 267.462 8.44481 267.298 8.42446C267.135 8.40411 266.971 8.40411 266.807 8.38376C266.509 8.34306 267.567 8.5262 267.194 8.44481C267.105 8.44481 267.015 8.40411 266.926 8.38376C266.747 8.34306 266.583 8.28202 266.419 8.20062L267 8.46516C266.792 8.36341 266.583 8.24132 266.39 8.07853L266.807 8.4855C266.598 8.28202 266.434 8.05818 266.3 7.7733L266.524 8.30236C266.39 7.97678 266.315 7.6512 266.3 7.28492V7.89539C266.3 7.52911 266.375 7.18318 266.479 6.8576L266.256 7.48841C266.36 7.22388 266.479 7.00004 266.613 6.7762L266.211 7.38667C266.3 7.26457 266.39 7.16283 266.479 7.04074C266.002 7.67155 265.958 7.54946 266.211 7.32562C265.63 7.71225 265.481 7.81399 265.749 7.6512C265.943 7.54946 265.868 7.59016 265.511 7.75295C265.153 7.91574 265.079 7.95643 265.272 7.87504C264.617 8.03783 264.453 8.07853 264.781 8.01748C265.287 7.93609 263.991 8.01748 264.468 8.05818C264.542 8.05818 264.632 8.05818 264.706 8.05818C264.2 7.97678 264.08 7.95644 264.364 8.01748C264.647 8.09888 264.915 8.18027 265.198 8.30236L264.617 8.03783C265.272 8.32271 265.928 8.66864 266.509 9.21806L266.092 8.81109C266.479 9.19771 266.837 9.62504 267.09 10.1948L266.866 9.66574C266.986 9.97097 267.06 10.2762 267.075 10.6221V10.0117C267.075 10.2355 267.03 10.439 266.971 10.6425L267.194 10.0117C267.135 10.1541 267.075 10.2762 267 10.3983L267.403 9.78783C267.403 9.78783 267.298 9.88957 267.284 9.95062L267.716 9.50295L268.282 9.11632C267.894 9.3605 269.176 8.75004 268.818 8.87213C268.46 8.99423 269.757 8.62795 269.414 8.70934C268.922 8.81109 270.263 8.70934 269.757 8.66864C269.697 8.66864 269.637 8.66864 269.578 8.66864C269.548 8.66864 269.518 8.66864 269.488 8.66864C269.265 8.6483 269.429 8.66864 269.965 8.72969C269.429 8.6076 268.892 8.4855 268.371 8.26167L268.952 8.5262C268.624 8.36341 268.311 8.18027 268.013 7.91574L268.431 8.32271C268.207 8.09888 268.014 7.83434 267.865 7.50876L268.088 8.03783C267.969 7.7326 267.909 7.40702 267.909 7.06109V7.67155C267.909 7.32562 267.969 7.00004 268.088 6.67446L267.865 7.30527C267.924 7.16283 267.984 7.02039 268.058 6.8983L267.656 7.50876C267.656 7.50876 267.745 7.40702 267.775 7.34597C267.641 7.54946 266.986 8.05818 266.747 8.20062C266.866 8.13958 265.749 8.64829 266.107 8.50585C265.764 8.64829 265.421 8.70934 265.079 8.72969C264.736 8.72969 264.661 8.72969 264.84 8.77039C265.511 8.83143 266.211 8.58725 266.837 8.30236C267.403 8.03783 268.043 7.67155 268.475 7.08143C268.729 6.7355 268.982 6.34888 269.086 5.8605C269.22 5.22969 268.863 4.57853 268.46 4.35469C267.135 3.62213 265.6 3.88667 264.304 4.63957C263.455 5.12795 262.62 5.84016 262.099 6.87795C261.622 7.83434 261.369 9.27911 261.771 10.3576C262.367 11.9245 263.499 12.596 264.676 13.0436C265.853 13.4913 267.105 13.6338 268.326 13.532C269.161 13.4506 269.995 13.125 270.77 12.6977C271.634 12.2093 272.587 11.3954 273.064 10.2355C273.362 9.5233 273.511 8.75004 273.347 7.93609C273.228 7.30527 272.9 6.67446 272.572 6.18609C271.872 5.18899 270.948 4.55818 270.01 4.09016C269.399 3.78492 268.773 3.50004 268.133 3.3576C266.941 3.11341 265.764 3.19481 264.587 3.56109C263.067 4.04946 261.429 5.20934 260.535 7.02039C260.267 7.56981 260.043 8.24132 259.998 8.89248C259.954 9.82853 260.088 10.5 260.49 11.2733C261.071 12.3925 262.218 12.9216 263.157 13.1454C264.289 13.4099 265.526 13.4913 266.673 13.2471C268.222 12.9012 269.935 12.25 271.097 10.7035C271.515 10.1541 271.947 9.4419 272.006 8.6076C272.081 7.63085 271.842 6.91864 271.41 6.14539C269.459 2.68609 265.317 2.93027 262.859 5.1483C261.876 6.0233 260.892 7.42736 260.833 9.13667C260.803 10.0727 260.892 10.6425 261.265 11.4157C261.637 12.189 262.308 12.5553 262.918 12.7588C264.17 13.1454 265.57 12.7588 266.732 12.1076C267.641 11.5989 268.401 10.8663 269.041 9.84888C269.682 8.83144 269.92 7.20353 269.146 6.14539C268.714 5.57562 268.014 5.41283 267.447 5.39248C266.643 5.35178 265.704 5.61632 264.974 6.06399C264.364 6.43027 263.634 6.93899 263.291 7.75295C263.053 8.32271 262.904 8.99423 263.291 9.52329L263.336 9.42155Z"
      fill="#D5B8F0"/>
    <path
      d="M290.836 7.52901C307.775 8.03773 324.684 9.27901 341.563 11.0697C342.859 11.2122 344.96 10.3982 345.645 8.77029C346.39 7.02029 345.005 6.40983 343.962 6.28773C327.097 4.3139 310.188 3.17436 293.279 2.64529C291.938 2.60459 289.853 3.2761 289.123 5.00576C288.393 6.73541 289.748 7.50866 290.836 7.52901Z"
      fill="#D5B8F0"/>
    <path
      d="M362.227 5.67738C362.122 6.06401 362.003 6.43029 361.869 6.79657L362.093 6.16575C361.869 6.77622 361.631 7.38668 361.303 7.8954L361.705 7.28494C361.571 7.48843 361.422 7.67157 361.273 7.83436L361.839 7.26459C361.839 7.26459 361.705 7.38668 361.631 7.44773C361.377 7.65122 361.541 7.52912 362.107 7.12215C361.914 7.22389 362.003 7.20354 362.361 7.0204C362.733 6.83726 363.106 6.71517 363.642 6.67447C364.283 6.63378 363.895 6.67447 363.731 6.63378L364.432 6.73552C364.297 6.71517 364.178 6.67447 364.059 6.63378L364.625 6.87796C364.432 6.79657 364.253 6.67447 364.089 6.51168L364.506 6.89831C364.312 6.69482 364.149 6.47098 364.029 6.1861L364.253 6.71517C364.163 6.49133 364.119 6.2675 364.104 6.02331V6.63378C364.104 6.40994 364.148 6.20645 364.208 6.00296L364 6.63378C364.044 6.51168 364.104 6.40994 364.163 6.30819L363.761 6.91866C363.851 6.79657 363.94 6.67447 364.044 6.57273L363.478 7.1425C363.582 7.04075 363.702 6.95936 363.806 6.85761C363.836 6.83726 363.016 7.36633 363.359 7.16285C363.418 7.12215 363.478 7.08145 363.538 7.0611C363.597 7.04075 363.657 7.00005 363.716 6.95936C364.089 6.75587 363.121 7.22389 363.18 7.20354C363.329 7.16284 363.463 7.1018 363.612 7.04075C363.94 6.91866 362.718 7.26459 363.061 7.18319C363.121 7.18319 363.195 7.16285 363.255 7.1425C363.404 7.12215 363.925 7.0611 363.299 7.12215C362.674 7.18319 363.195 7.12215 363.344 7.12215C363.493 7.12215 363.642 7.12215 363.791 7.16285L363.091 7.0611C363.478 7.12215 363.865 7.22389 364.238 7.38668L363.657 7.1425C364.029 7.30529 364.387 7.52912 364.73 7.79366L364.089 6.2675C363.97 6.71517 363.851 7.16285 363.702 7.59017L363.925 6.95936C363.702 7.59017 363.448 8.15994 363.106 8.68901L363.508 8.07854C363.314 8.36343 363.121 8.62796 362.897 8.8518L363.463 8.28203C363.389 8.36343 363.314 8.42447 363.225 8.48552C362.927 8.75005 363.776 8.11924 363.716 8.15994C363.642 8.20064 363.567 8.24133 363.493 8.28203C363.448 8.30238 364.491 7.83436 364.044 8.0175C363.776 8.11924 363.463 8.0175 364.61 7.87505C364.551 7.87505 364.476 7.8954 364.417 7.91575C364.089 7.9768 365.325 7.91575 364.923 7.87505C364.849 7.87505 364.759 7.87505 364.685 7.87505L365.385 7.9768C365.206 7.95645 365.027 7.8954 364.849 7.83436L365.43 8.09889C365.236 7.99715 365.057 7.8954 364.878 7.73261L365.296 8.13959C365.087 7.9361 364.908 7.69192 364.774 7.38668L364.998 7.91575C364.849 7.54947 364.774 7.1425 364.774 6.71517V7.32564C364.774 6.89831 364.864 6.49133 364.998 6.10471L364.774 6.73552C364.879 6.47098 364.998 6.2268 365.132 6.00296L364.73 6.61343C364.819 6.49133 364.893 6.38959 364.998 6.28784L364.432 6.85761C364.432 6.85761 364.551 6.75587 364.61 6.69482C364 7.1018 363.821 7.22389 364.089 7.0611C364.268 6.95936 364.178 7.00005 363.806 7.18319C363.433 7.34598 363.344 7.38668 363.523 7.32564C362.793 7.48843 362.569 7.54947 362.852 7.50878C363.106 7.46808 362.897 7.48843 362.242 7.54947C362.286 7.54947 362.346 7.54947 362.391 7.54947L361.69 7.44773C361.81 7.46808 361.929 7.50878 362.048 7.54947L361.467 7.28494C361.631 7.36633 361.78 7.46808 361.914 7.61052L361.497 7.20354C361.765 7.46808 361.973 7.79366 362.137 8.18029L361.914 7.65122C362.078 8.07854 362.182 8.52622 362.182 8.99424V8.38377C362.182 8.72971 362.122 9.09598 362.078 9.42157C361.869 11.0698 363.523 11.2937 364.342 11.2326C365.698 11.1309 367.113 10.439 367.992 8.97389C368.514 8.11924 368.633 6.87796 368.38 5.84017C368.126 4.80238 367.575 3.96808 366.875 3.37796C366.517 3.07273 366.1 2.88959 365.698 2.78784C364.715 2.52331 363.731 2.66575 362.763 2.97098C361.392 3.39831 360.141 4.3954 359.247 5.86052C358.353 7.32564 358.145 9.7675 359.247 11.1919C359.873 12.0059 360.737 12.4942 361.571 12.6367C363.121 12.9012 364.64 12.596 366.085 11.8024C367.322 11.1105 368.409 9.97098 369.214 8.50587C369.75 7.52912 370.108 6.36924 370.391 5.22971C370.555 4.53784 370.123 3.98843 369.75 3.70354C368.454 2.6861 366.845 2.25878 365.355 2.34017C364.312 2.40122 363.284 2.56401 362.271 3.01168C361.08 3.54075 359.888 4.19191 358.934 5.33145C358.249 6.1454 357.742 7.26459 357.891 8.54657C357.966 9.21808 358.338 9.86924 358.741 10.2966C360.707 12.3314 363.642 11.6803 365.608 9.99133C366.398 9.31982 367.098 8.42447 367.59 7.36633C367.977 6.51168 368.275 5.57564 368.543 4.63959C368.737 3.98843 368.26 3.35761 367.903 3.09308C367.322 2.6861 366.443 2.66575 365.832 2.78784C364.476 3.05238 362.808 3.82564 362.256 5.71808L362.227 5.67738Z"
      fill="#D5B8F0"/>
    <path
      d="M389.758 9.84879H411.807C419.151 9.84879 426.6 10.3372 433.93 9.7267C435.003 9.6453 436.91 8.72961 437.312 7.18309C437.714 5.63658 436.493 5.10751 435.539 5.02612C428.388 4.3953 421.058 4.96507 413.892 4.96507H392.216C390.875 4.96507 388.79 5.55519 388.06 7.30519C387.33 9.05519 388.67 9.82844 389.773 9.82844L389.758 9.84879Z"
      fill="#D5B8F0"/>
    <path
      d="M456.814 5.29065C456.709 5.3924 456.59 5.47379 456.471 5.57554L457.171 5.08716C457.007 5.20926 456.828 5.29065 456.65 5.3924L457.469 5.00577C457.32 5.06681 457.156 5.12786 457.007 5.16856L457.856 4.94472C457.692 4.98542 457.544 5.00577 457.38 5.02612L458.169 4.96507C457.976 4.96507 457.797 4.96507 457.603 4.96507L458.303 5.06681H458.229L459.436 6.81681C459.51 6.53193 459.585 6.2267 459.674 5.96216L459.465 6.59298C459.614 6.16565 459.793 5.75868 460.031 5.3924L459.629 6.00286C459.763 5.79937 459.912 5.61623 460.061 5.47379L459.495 6.04356C459.585 5.96216 459.674 5.88077 459.763 5.81972L459.063 6.30809C459.153 6.24705 459.227 6.20635 459.316 6.16565L458.497 6.55228C458.497 6.55228 458.631 6.49123 458.706 6.47088L457.856 6.69472C457.946 6.67437 458.035 6.65402 458.125 6.65402L457.335 6.71507C457.439 6.71507 457.544 6.71507 457.648 6.71507L456.948 6.61333C457.111 6.63368 457.26 6.67437 457.409 6.75577L456.843 6.51158C457.111 6.63368 457.35 6.79647 457.573 7.0203L457.156 6.63368C457.499 6.97961 457.797 7.38658 458.02 7.8953L457.797 7.36623C457.99 7.83426 458.11 8.34298 458.125 8.8924V8.28193C458.125 8.64821 458.065 9.01449 457.961 9.36042L458.169 8.72961C458.08 8.99414 457.961 9.23833 457.812 9.44181L458.214 8.83135C458.11 8.99414 457.99 9.11623 457.871 9.23833L458.437 8.66856C458.333 8.7703 458.214 8.87205 458.095 8.95344L458.795 8.46507C458.691 8.52612 458.586 8.58716 458.467 8.64821L459.287 8.26158C459.182 8.30228 459.063 8.34298 458.944 8.38367L459.793 8.15984C459.674 8.18019 459.57 8.20054 459.45 8.22088L460.24 8.15984C460.091 8.15984 459.927 8.15984 459.778 8.15984L460.478 8.26158C460.329 8.24123 460.18 8.20054 460.031 8.11914L460.612 8.38367C460.404 8.28193 460.225 8.15984 460.046 7.99705L460.463 8.40402C460.225 8.15984 460.031 7.87495 459.882 7.52902L460.106 8.05809C459.897 7.54937 459.793 6.97961 459.793 6.38949V6.99995C459.793 6.49123 459.868 6.00286 460.031 5.53484L459.808 6.16565C459.912 5.88077 460.031 5.61623 460.18 5.37205L459.778 5.98251C459.868 5.84007 459.972 5.71798 460.076 5.61623L459.51 6.186C459.585 6.10461 459.674 6.04356 459.763 5.98251L459.048 6.47088C459.138 6.40984 459.227 6.36914 459.316 6.30809L458.497 6.69472C458.586 6.65402 458.676 6.61333 458.78 6.59298L457.931 6.81681C458.02 6.79647 458.125 6.77612 458.214 6.77612L457.424 6.83716C457.558 6.83716 457.692 6.83716 457.827 6.83716L457.126 6.73542C457.305 6.75577 457.469 6.81681 457.633 6.89821L457.052 6.63368C457.29 6.75577 457.514 6.89821 457.722 7.1017L457.305 6.69472C457.573 6.95926 457.797 7.28484 457.976 7.67147L457.752 7.1424C457.856 7.40693 457.931 7.67147 457.976 7.95635L458.601 6.10461C458.303 6.51158 457.976 6.87786 457.633 7.22379L458.199 6.65402C457.797 7.061 457.365 7.40693 456.918 7.71216L457.633 7.22379C457.231 7.48833 456.828 7.73251 456.396 7.936L457.201 7.56972C456.828 7.73251 456.471 7.91565 456.098 8.07844L456.888 7.71216C456.769 7.77321 456.635 7.83426 456.516 7.87495C455.845 8.13949 455.026 8.56681 454.519 9.25868C454.206 9.66565 453.923 10.1133 453.923 10.7441C453.894 10.9476 453.923 11.1308 454.028 11.2936C454.117 11.5988 454.296 11.8023 454.534 11.9244C455.145 12.2907 455.86 12.3313 456.516 12.2093C458.437 11.8226 460.374 10.9069 461.983 9.36042C462.385 8.97379 462.802 8.56681 463.175 8.11914C463.711 7.48833 464.426 6.71507 464.262 5.63658C464.218 5.37205 464.143 5.10751 464.039 4.86333C463.86 4.436 463.681 4.00867 463.413 3.66274C461.938 1.7703 459.734 1.72961 457.871 2.31972C456.009 2.90984 454.117 4.5174 453.596 7.12205C453.447 7.85461 453.447 8.72961 453.566 9.46216C453.61 9.74705 453.685 10.0116 453.789 10.2761C453.953 10.7034 454.132 11.1308 454.385 11.4563C455.815 13.3691 458.125 13.2267 459.912 12.6366C461.7 12.0465 463.711 10.5203 464.292 7.9767C464.62 6.53193 464.173 4.94472 463.458 3.86623C462.281 2.13658 460.344 1.58716 458.691 1.99414C457.231 2.34007 455.711 3.05228 454.653 4.55809C454.311 5.04647 453.983 5.55519 453.745 6.16565C453.536 6.73542 453.327 7.30519 453.193 7.91565C452.97 8.8924 453.804 9.58426 454.4 9.686C454.847 9.74705 455.279 9.84879 455.726 9.82844C456.516 9.78774 457.171 9.686 457.946 9.44181C458.899 9.15693 459.868 8.60751 460.687 7.8953C461.134 7.50868 461.76 6.85751 461.879 6.08426C461.983 5.41274 461.685 4.82263 461.238 4.55809C460.612 4.17147 459.853 4.13077 459.167 4.25286C458.348 4.41565 457.499 4.72088 456.799 5.3517L456.814 5.29065Z"
      fill="#D5B8F0"/>
    <path
      d="M482.603 9.4826C498.275 8.66865 513.978 8.89249 529.635 10.1948C530.961 10.2966 533.077 9.5233 533.792 7.83435C534.537 6.064 533.151 5.39249 532.079 5.31109C516.421 4.00877 500.718 3.76458 485.046 4.59888C483.69 4.68028 481.649 5.1483 480.889 6.95935C480.189 8.62795 481.485 9.54365 482.603 9.4826Z"
      fill="#D5B8F0"/>
  </g>
  <defs>
    <clipPath id="clip0_819_4901">
      <rect width="534" height="14" fill="white"/>
    </clipPath>
  </defs>
</svg>
