<svg xmlns="http://www.w3.org/2000/svg" width="193" height="71" viewBox="0 0 193 71" fill="none">
  <g clip-path="url(#clip0_938_5720)">
    <path
      d="M11.7381 57.9816C12.1892 42.6976 13.4298 27.4703 15.4033 12.3282L3.98483 14.601C8.43945 24.7146 10.5822 35.5669 13.7681 46.1351C15.2906 51.2203 17.0668 56.2203 19.5196 60.9362C22.0853 65.9078 24.6227 69.7146 30.5434 70.2828C32.7989 70.5101 37.9866 69.0896 38.5223 66.2771C40.3549 56.8453 41.9055 47.3567 43.1179 37.8396C44.3302 28.3226 45.7399 18.6919 45.7963 9.17483C45.7963 4.40211 34.6879 6.76006 34.2368 10.6237C33.1372 20.1407 32.7425 29.7714 31.5584 39.2885C30.3743 48.8055 28.8236 58.2941 27.0192 67.726L34.998 63.7203C34.265 63.6635 32.235 60.0555 31.6994 59.118C30.5998 57.1578 29.6694 55.1123 28.7954 53.0385C26.9346 48.5782 25.4967 43.9476 24.1998 39.3169C21.5778 29.9703 19.435 20.4248 15.4315 11.5328C13.8245 7.98165 4.43593 10.1407 4.01302 13.8055C2.15223 28.8907 1.02447 44.118 0.629759 59.3737C0.516984 63.976 11.6254 61.6748 11.7381 57.9816Z"
      fill="#F6ECC9"/>
    <path
      d="M62.0935 23.1799C61.2195 30.6514 60.4864 38.123 59.838 45.623C59.5278 49.373 59.2459 53.123 58.9922 56.873C58.7948 59.7423 58.0054 63.4639 59.1049 66.2196C60.4864 69.7139 64.208 70.2253 67.5349 70.3105C71.1437 70.3673 74.8089 70.1117 78.3613 69.5151C85.6635 68.2935 93.304 66.0492 99.5067 61.873C100.804 60.9923 102.693 59.1742 100.832 57.8105C98.971 56.4469 95.7569 57.1003 93.9243 57.9526C89.0468 60.1969 84.3666 62.3276 79.1789 63.1514C76.8388 63.5208 74.0195 64.0321 71.6512 63.6912C70.8336 63.5776 70.749 63.5776 70.4107 62.5833C70.0723 61.5889 70.1287 60.3958 70.1851 59.3446C70.8899 46.7878 72.0459 34.2594 73.4838 21.7878C73.9913 17.2424 62.5446 19.3446 62.0935 23.2367V23.1799Z"
      fill="#F6ECC9"/>
    <path
      d="M74.5831 50.4526L85.2968 43.3503C87.0448 42.1856 88.7928 41.0208 90.5691 39.856C92.5426 38.5208 94.629 37.214 96.4052 35.6231C97.5611 34.5719 98.125 32.8106 96.377 32.0151C94.4316 31.1344 91.6404 31.5038 89.7796 32.4128C85.6069 34.4867 81.7726 37.214 77.91 39.7992L67.1964 46.9015C66.3506 47.4697 65.1664 48.3503 64.9409 49.4299C64.7435 50.3674 65.3074 51.1912 66.1532 51.589C68.6624 52.7253 72.384 51.9299 74.6113 50.4526H74.5831Z"
      fill="#F6ECC9"/>
    <path
      d="M74.4692 22.7538C78.7265 20.5094 83.0119 18.2651 87.2692 16.0208L93.5564 12.7254C95.671 11.6174 97.9265 10.5947 99.8719 9.20262C101.169 8.29353 103.114 6.47535 101.225 5.08331C99.3362 3.69126 96.1785 4.48671 94.2331 5.22535C91.5547 6.27649 89.0454 7.75376 86.508 9.08899L80.2208 12.3844C75.8789 14.6572 71.5371 16.9583 67.2234 19.231C65.5882 20.0833 63.7556 22.7253 66.2084 23.8333C68.8586 25.0265 72.1009 24.0038 74.4974 22.7253L74.4692 22.7538Z"
      fill="#F6ECC9"/>
    <path
      d="M117.097 8.37922L126.542 43.4929L131.194 60.7372C132.294 64.8281 133.337 69.686 138.327 70.2542C141.231 70.5667 147.039 69.8565 147.941 66.2485L157.217 28.8906L145.291 31.2485L151.043 45.1122C152.734 49.2031 154.172 53.6633 156.681 57.3565C158.88 60.6235 162.264 62.7258 166.154 63.1519C171.427 63.7201 175.769 61.6463 178.729 57.2997C183.465 50.3679 184.311 40.7372 186.059 32.6974L192.6 2.89626C193.587 -1.56396 181.576 0.282626 180.674 4.40194L174.161 34.2031C173.147 38.8906 172.188 43.6349 171.032 48.294C170.102 52.044 168.974 55.9929 166.154 58.7769L171.737 56.4474C170.524 56.561 168.382 53.7201 167.705 52.669C166.154 50.2826 165.224 47.4133 164.124 44.7997L157.189 28.0383C155.525 24.0042 146.137 26.8451 145.263 30.3963L135.987 67.7542L145.601 63.7485C144.671 63.6349 144.05 61.0781 143.769 60.0269C143.036 57.3565 142.331 54.686 141.626 52.0156L137.481 36.6179L129.023 5.1974C127.895 1.02126 115.941 4.23149 117.097 8.40763V8.37922Z"
      fill="#F6ECC9"/>
  </g>
  <defs>
    <clipPath id="clip0_938_5720">
      <rect width="192" height="70" fill="white" transform="translate(0.629883 0.310791)"/>
    </clipPath>
  </defs>
</svg>
