<svg xmlns="http://www.w3.org/2000/svg" width="136" height="160" viewBox="0 0 136 160" fill="none">
  <g clip-path="url(#clip0_938_5703)">
    <path
      d="M35.2216 59.6541C61.0022 45.0639 86.7829 30.4738 112.564 15.8837C119.873 11.7408 127.216 7.63071 134.476 3.38959C135.476 2.81647 136.296 1.62109 135.05 0.851467C133.804 0.0818424 131.608 0.818717 130.444 1.45734C104.467 15.72 78.8012 30.5884 53.0206 45.1786L31.0259 57.6236C29.9769 58.2131 29.1411 59.4903 30.4358 60.2763C31.7306 61.0623 34.0415 60.3254 35.2543 59.6377L35.2216 59.6541Z"
      fill="#F6ECC9"/>
    <path
      d="M129.659 2.66898C129.216 36.9091 128.446 71.1492 127.332 105.373C127.02 115.149 126.66 124.925 126.299 134.701C126.201 137.288 132.543 136.011 132.625 133.915C133.936 99.6908 134.903 65.4671 135.543 31.227C135.723 21.4511 135.87 11.6589 136.002 1.88298C136.034 -0.720642 129.692 0.589357 129.675 2.66898H129.659Z"
      fill="#F6ECC9"/>
    <path
      d="M30.1238 59.5557C57.0353 77.7483 81.4884 99.1995 106.269 120.11C113.218 125.973 120.217 131.802 127.297 137.517C128.428 138.434 130.247 138.123 131.493 137.582C132.116 137.32 134.312 135.961 133.181 135.044C107.712 114.477 83.4552 92.4039 57.4287 72.5247C50.1517 66.9735 42.7437 61.6025 35.1554 56.4772C33.4509 55.3309 27.5998 57.8363 30.1238 59.5393V59.5557Z"
      fill="#F6ECC9"/>
    <path
      d="M129.232 1.73564C110.695 22.2699 92.4863 43.0989 74.6054 64.1898C69.5083 70.1995 64.4439 76.2418 59.396 82.3006C58.4126 83.4796 60.2318 84.1182 61.1169 84.1673C62.6247 84.2492 64.3292 83.6106 65.2962 82.448C82.9968 61.1932 101.009 40.2005 119.365 19.5025C124.593 13.6075 129.854 7.72888 135.132 1.86664C136.181 0.704011 134.247 0.0490117 133.411 -0.000113263C131.854 -0.0819882 130.264 0.589386 129.232 1.71926V1.73564Z"
      fill="#F6ECC9"/>
    <path
      d="M121.905 5.91129C111.056 30.3592 100.697 55.0526 90.8965 79.9426C88.1103 87.0002 85.3733 94.0742 82.669 101.165C82.1445 102.524 84.7013 102.589 85.406 102.524C86.7336 102.376 88.4873 101.738 89.0117 100.379C98.534 75.374 108.564 50.5659 119.136 25.987C122.135 19.0113 125.167 12.0683 128.248 5.12529C128.838 3.78254 126.15 3.70067 125.511 3.76617C124.118 3.92992 122.512 4.56854 121.905 5.91129V5.91129Z"
      fill="#F6ECC9"/>
    <path
      d="M81.9454 99.6745C77.4711 106.306 72.669 112.676 67.9816 119.161C67.1457 120.307 68.6863 120.897 69.6041 120.929C71.03 120.978 72.6526 120.422 73.5704 119.292C78.6019 113.069 83.1746 106.437 87.6489 99.8055C88.452 98.6102 86.9606 98.037 85.9936 98.0043C84.6497 97.9715 82.7485 98.4792 81.9454 99.6745V99.6745Z"
      fill="#F6ECC9"/>
    <path
      d="M61.4446 84.7077C62.936 98.0206 64.0505 111.448 66.05 124.712C66.3614 126.775 72.2289 125.301 72.065 123.107C71.0488 109.729 69.1476 96.3831 67.6398 83.0539C67.4103 81.007 61.1823 82.3825 61.4446 84.7077V84.7077Z"
      fill="#F6ECC9"/>
    <path
      d="M76.2426 122.092C79.0124 119.554 81.8806 117.13 84.847 114.821C87.8135 112.512 90.862 110.564 93.9596 108.288C94.8774 107.6 94.6971 106.552 93.6646 106.208C92.3534 105.766 90.7309 106.208 89.5836 106.879C86.191 108.844 82.995 111.301 79.8974 113.691C76.7998 116.082 73.9808 118.489 71.1782 121.06C70.834 121.371 70.4079 121.912 70.5554 122.419C70.7029 122.927 71.3257 123.189 71.7846 123.287C73.2105 123.598 75.1609 123.091 76.259 122.092H76.2426Z"
      fill="#F6ECC9"/>
    <path
      d="M81.9306 112.611C83.8809 110.744 85.8477 108.894 87.798 107.011C88.1094 106.699 88.5028 106.241 88.3717 105.75C88.2405 105.258 87.6669 105.029 87.2408 104.947C86.5196 104.816 85.7493 104.865 85.061 105.078C84.3726 105.291 83.6351 105.553 83.1106 106.061C81.1275 107.911 79.1608 109.778 77.194 111.645C76.8662 111.956 76.4729 112.431 76.604 112.922C76.7351 113.413 77.3251 113.659 77.7513 113.741C78.4724 113.872 79.2591 113.823 79.9638 113.61C80.6686 113.397 81.4061 113.118 81.9306 112.611V112.611Z"
      fill="#F6ECC9"/>
    <path
      d="M74.508 115.673L73.918 115.968C73.2624 116.295 74.3441 115.755 73.8196 116.017L77.327 117.703C80.6049 114.134 84.0139 110.695 87.4885 107.305C87.7999 106.994 88.1932 106.536 88.0621 106.044C87.931 105.553 87.3573 105.324 86.9312 105.242C85.6037 104.996 83.8008 105.389 82.7847 106.355C79.2609 109.68 75.8847 113.167 72.6232 116.754C72.361 117.048 71.8693 117.54 72.0496 118.014C72.1971 118.407 72.5249 118.604 72.9182 118.735C74.1966 119.144 75.6716 118.735 76.8025 118.096C77.245 117.851 77.6875 117.638 78.1137 117.409C78.9168 116.983 79.8346 115.689 78.6217 115.132C77.2942 114.543 75.7044 115.067 74.4916 115.673H74.508Z"
      fill="#F6ECC9"/>
    <path
      d="M85.2902 110.416C86.5685 108.369 87.8469 106.323 89.0761 104.243C89.3056 103.834 89.4039 103.408 89.0761 103.015C88.7483 102.622 87.9616 102.491 87.47 102.491C86.6833 102.491 85.8638 102.622 85.1427 102.949C84.5526 103.211 83.9134 103.555 83.5529 104.112C82.2253 106.142 80.9633 108.222 79.6849 110.285C79.4391 110.695 79.3572 111.137 79.6849 111.53C80.0127 111.923 80.8158 112.054 81.3075 112.054C82.1106 112.054 82.9465 111.923 83.6676 111.579C84.2576 111.317 84.9296 110.973 85.2902 110.4V110.416Z"
      fill="#F6ECC9"/>
    <path
      d="M84.4229 106.536C85.308 107.616 86.193 108.697 87.1108 109.761C87.2911 109.942 87.5206 110.073 87.7828 110.122C88.0778 110.236 88.3892 110.285 88.717 110.285C89.1103 110.285 89.4873 110.253 89.8643 110.171C90.274 110.105 90.6673 109.991 91.0443 109.827L91.7163 109.483C92.0768 109.27 92.3882 109.008 92.6341 108.664L92.8308 108.239C92.8963 107.944 92.8307 107.682 92.6177 107.453C91.7654 106.355 90.8804 105.275 90.0118 104.21C89.8151 104.014 89.602 103.899 89.3398 103.85C89.0448 103.735 88.717 103.686 88.3892 103.686C87.9959 103.686 87.6025 103.719 87.2255 103.801C86.8158 103.866 86.4225 103.981 86.0291 104.145L85.3571 104.489C84.9966 104.702 84.6852 104.98 84.4229 105.307L84.2099 105.75C84.1443 106.061 84.2099 106.323 84.4229 106.552V106.536Z"
      fill="#F6ECC9"/>
    <path
      d="M8.19548 82.2842L0.590762 89.8822C0.279362 90.1933 -0.113986 90.6354 0.0171304 91.1267C0.148246 91.5852 0.721878 91.8472 1.13162 91.9127C1.83636 92.0437 2.59028 91.9946 3.27864 91.7817C3.967 91.5688 4.70452 91.3232 5.19621 90.8156L12.8173 83.2176C13.1287 82.9064 13.5221 82.4643 13.391 81.9731C13.2598 81.5146 12.6862 81.2526 12.2765 81.1871C11.5717 81.0561 10.8178 81.1052 10.1294 81.3181C9.44109 81.5309 8.70356 81.7766 8.21187 82.2842H8.19548Z"
      fill="#F6ECC9"/>
    <path
      d="M32.3528 95.6955L18.4872 109.565C18.1758 109.876 17.7825 110.318 17.9136 110.826C18.0447 111.284 18.6184 111.546 19.0445 111.628C20.3393 111.874 22.1913 111.497 23.1583 110.531L37.0401 96.6616C37.3515 96.3505 37.7449 95.892 37.6138 95.4007C37.4827 94.9259 36.909 94.6802 36.4829 94.5984C35.1881 94.3527 33.3197 94.7294 32.3528 95.7119V95.6955Z"
      fill="#F6ECC9"/>
    <path
      d="M81.1283 130.59C76.8015 135.356 72.4747 140.137 68.1642 144.902C67.8528 145.23 67.4431 145.655 67.5906 146.163C67.7217 146.638 68.3117 146.884 68.7215 146.965C69.9671 147.195 71.9502 146.851 72.868 145.852C77.2112 141.087 81.538 136.305 85.8649 131.54C86.1763 131.196 86.586 130.787 86.4549 130.263C86.3238 129.788 85.7337 129.526 85.3076 129.444C84.0456 129.215 82.0461 129.559 81.1283 130.558V130.59Z"
      fill="#F6ECC9"/>
    <path
      d="M122.725 145.328C118.398 149.504 114.087 153.679 109.761 157.855C109.449 158.166 109.04 158.625 109.171 159.116C109.302 159.607 109.892 159.853 110.318 159.918C111.645 160.164 113.465 159.771 114.481 158.805C118.824 154.629 123.151 150.453 127.478 146.278C127.805 145.967 128.199 145.492 128.068 145.001C127.937 144.509 127.347 144.264 126.92 144.182C125.577 143.936 123.741 144.329 122.725 145.312V145.328Z"
      fill="#F6ECC9"/>
  </g>
  <defs>
    <clipPath id="clip0_938_5703">
      <rect width="136" height="160" fill="white"/>
    </clipPath>
  </defs>
</svg>
