<svg xmlns="http://www.w3.org/2000/svg" width="105" height="73" viewBox="0 0 105 73" fill="none">
  <g clip-path="url(#clip0_938_5697)">
    <path d="M1.47175 10.4435C1.01062 29.8393 -6.01494 57.9937 16.0111 69.2925C25.1525 73.9761 36.7352 72.7589 44.7915 66.5405C52.3596 60.6927 55.5604 51.1139 57.0524 42.1436C59.2495 28.8073 58.49 15.0477 55.0722 1.97602C54.0685 -1.86081 42.6215 1.07635 43.7336 4.93964C47.3142 17.5086 48.1822 30.5802 46.0936 43.4931C45.2798 48.4942 44.0863 53.6012 41.6178 58.0995C39.8275 61.3542 36.9522 65.588 32.8562 66.1436C28.2177 66.7787 23.1452 63.868 19.9172 60.9044C15.7941 57.094 13.4071 52.0135 12.0779 46.6949C8.98558 34.3641 11.9152 21.6364 12.2135 9.17338C12.322 4.88672 1.60738 7.03005 1.49888 10.4964H1.47175V10.4435Z" fill="#F6ECC9"/>
    <path d="M93.5359 5.94537C91.6643 27.1934 90.5521 48.5209 90.1723 69.8484C90.091 74.0556 100.589 71.9388 100.643 68.5782C101.023 47.2508 102.135 25.9233 104.006 4.67525C104.359 0.573815 93.8343 2.50546 93.5359 5.94537V5.94537Z" fill="#F6ECC9"/>
  </g>
  <defs>
    <clipPath id="clip0_938_5697">
      <rect width="104" height="72" fill="white" transform="translate(0.0332031 0.177002)"/>
    </clipPath>
  </defs>
</svg>
