<!-- Pixel arrow (down). Each dot is a .dot__px group so it can pop in on hover -->
<svg class="arrow-dots" xmlns="http://www.w3.org/2000/svg" width="20" height="20" fill="none" viewBox="0 0 20 20"><g transform="matrix(1 0 0 -1 0 20)"><g class="dot__px"><ellipse cx="10" cy="16.39" fill="#fff" opacity=".42" rx=".94" ry=".92"/></g><g class="dot__px"><ellipse cx="10" cy="10.83" fill="#fff" opacity=".42" rx=".94" ry=".92"/></g><g class="dot__px"><ellipse cx="10" cy="8.04" fill="#fff" rx=".94" ry=".92"/></g><g class="dot__px"><ellipse cx="10" cy="13.61" fill="#fff" rx=".94" ry=".92"/></g><g class="dot__px"><circle cx=".93" cy=".93" r=".93" fill="#fff" transform="matrix(.71208 -.7021 .71208 .7021 8.67 4)"/></g><g class="dot__px"><circle cx=".93" cy=".93" r=".93" fill="#fff" transform="matrix(-.71208 -.7021 .71208 -.7021 8 7.27)"/></g><g class="dot__px"><circle cx=".93" cy=".93" r=".93" fill="#fff" opacity=".42" transform="matrix(-.71208 -.7021 .71208 -.7021 6.01 9.24)"/></g><g class="dot__px"><circle cx=".93" cy=".93" r=".93" fill="#fff" transform="matrix(-.71208 -.7021 .71208 -.7021 4.01 11.2)"/></g><g class="dot__px"><circle cx=".93" cy=".93" r=".93" fill="#fff" transform="matrix(.71208 -.7021 .71208 .7021 12.67 7.93)"/></g><g class="dot__px"><circle cx=".93" cy=".93" r=".93" fill="#fff" opacity=".42" transform="matrix(.71208 -.7021 .71208 .7021 10.67 5.96)"/></g><g class="dot__px"><circle cx=".93" cy=".93" r=".93" fill="#fff" opacity=".42" transform="matrix(.71208 -.7021 .71208 .7021 14.66 9.9)"/></g></g></svg>
