<svg width="151" height="56" fill="none" xmlns="http://www.w3.org/2000/svg"><g clip-path="url('#clip0_819_1389')" fill="#EB7A53"><path d="M.046 29.863c3.008-8.005 6.417-16.103 13.766-21.12 6.57-4.477 14.78-5.918 22.613-5.297 8.529.68 16.68 4.207 23.604 9.107 3.562 2.52 6.853 5.38 9.908 8.485a99.2 99.2 0 0 1 4.377 4.794c1.404 1.64 2.83 3.305 3.586 5.344.637 1.747.554 3.786-.507 5.345-1.121 1.652-3.162 2.168-5.073 2.039-4.317-.293-8.516-3.165-11.548-6.083C54.898 26.84 50.757 17.276 54.78 9.47 58.802 1.664 68.557-.62 76.815.13c8.257.75 17.351 3.903 25.113 7.642 14.733 7.09 27.626 17.967 36.721 31.527a74.953 74.953 0 0 1 3.173 5.157c1.144 2.016-3.786 1.489-4.6.106-7.208-12.306-17.175-22.785-29.337-30.368-6.004-3.738-12.468-6.786-19.227-8.884-7.29-2.273-15.63-4.149-22.767-.422-3.208 1.676-5.874 4.407-7.006 7.877-1.133 3.469-.767 7.547.578 11.075 1.344 3.528 3.597 6.529 6.405 8.908 1.203 1.02 2.536 1.945 3.963 2.637.66.316 1.263.633 1.959.281.825-.41 1.262-1.324 1.462-2.18.814-3.54-2.83-6.798-4.978-9.177-2.583-2.86-5.355-5.555-8.34-8.005-5.473-4.489-11.89-8.216-18.92-9.622-7.373-1.477-15.382-.375-21.846 3.492-7.738 4.618-11.23 12.94-14.285 20.956-.637 1.665-5.403.27-4.825-1.289H.046v.023Z"/><path d="m125.497 37.751 11.607 8.427 5.592 4.056c1.557 1.125 3.208 2.719 5.143 3.117l-2.643.27c1.156-1.735.826-4.161.696-6.118-.153-2.215-.401-4.43-.637-6.646-.471-4.442-1.061-9.13-.259-13.572.307-1.676 4.919-.445 4.824 1.29-.271 4.875.071 9.598.59 14.439.248 2.379.508 4.758.578 7.161.059 1.957-.047 3.715-1.156 5.391-.472.704-2.005.399-2.642.27-2.395-.492-4.376-1.805-6.323-3.223-2.147-1.559-4.293-3.118-6.452-4.677l-12.893-9.364c-.885-.645-.436-1.524.472-1.747 1.215-.293 2.548.235 3.515.938l-.012-.012Z"/></g><defs><clipPath id="clip0_819_1389"><path fill="#fff" transform="matrix(1 0 0 -1 0 56)" d="M0 0h151v56H0z"/></clipPath></defs></svg>