<svg width="352" height="24" fill="none" xmlns="http://www.w3.org/2000/svg"><path d="M76.617 4.879a6678.805 6678.805 0 0 1 100.34-1.357c33.452-.2 66.596-.134 99.884.184 18.911.185 37.839.436 56.75.77l2.566-3.432c-43.172.686-86.325 1.54-129.479 2.562A15904.78 15904.78 0 0 0 77.218 7.19C52.993 7.96 28.786 8.764 4.56 9.634c-1.42.05-3.549.386-4.35 1.658-.746 1.19.637 1.809 1.784 1.776a3153.529 3153.529 0 0 1 134.975-.285c44.992.87 89.947 2.73 134.848 5.543a3081.193 3081.193 0 0 1 75.605 5.66c1.365.117 3.622-.503 4.35-1.658.801-1.256-.692-1.691-1.784-1.775a3142.048 3142.048 0 0 0-134.629-8.825A3098.462 3098.462 0 0 0 80.421 8.747c-25.28 0-50.561.285-75.842.887l-2.566 3.434c43.135-1.558 86.289-2.931 129.442-4.154 43.154-1.205 86.307-2.26 129.461-3.131 24.225-.486 48.468-.938 72.693-1.323 1.42-.017 3.567-.402 4.35-1.658.782-1.256-.655-1.758-1.784-1.775C302.704.457 269.27.106 235.817.022c-33.452-.083-66.595.067-99.884.486-18.911.234-37.84.552-56.75.954-1.42.034-3.567.402-4.35 1.658-.746 1.19.638 1.809 1.784 1.775V4.88Z" fill="#EB7A53"/></svg>