<svg width="324" height="49" fill="none" xmlns="http://www.w3.org/2000/svg"><path d="m79.937 13.7 145.44-7.215 41.072-2.038 1.612-3.413-102.688 6.283-102.688 6.282L4.5 17.164l-.84 3.362a3135.204 3135.204 0 0 1 115.052-5.739 3135.866 3135.866 0 0 1 179.926-.475l1.612-3.413-101.521 8.897c-33.835 2.972-67.687 5.926-101.522 8.897l-57.157 5.01c-1.046.084-3.327.78-3.481 2.054-.19 1.375 1.766 1.375 2.64 1.307a2186.85 2186.85 0 0 1 109.616-6.18 2214.01 2214.01 0 0 1 109.29-.713c20.562.373 41.106 1.035 61.634 1.986l1.629-3.43A9093.92 9093.92 0 0 1 86.111 42.701a9596.393 9596.393 0 0 1-66.212 2.836l-1.612 3.412a2259.846 2259.846 0 0 1 110.885-6.231 2265.898 2265.898 0 0 1 110.559-.815c20.836.34 41.672.968 62.49 1.885 1.304.05 3.362-.459 4.065-1.664.703-1.206-.618-1.75-1.664-1.8-37.11-1.63-74.255-2.394-111.382-2.207A2316.694 2316.694 0 0 0 81.943 41.36a2347.692 2347.692 0 0 0-62.799 4.21c-1.046.085-3.018.714-3.395 1.851-.378 1.138.754 1.613 1.766 1.562a9173.704 9173.704 0 0 0 118.31-5.416 9460.338 9460.338 0 0 0 118.157-6.91 8692.747 8692.747 0 0 0 66.537-4.568c1.046-.068 3.036-.713 3.396-1.85.36-1.138-.772-1.529-1.784-1.58a2225.508 2225.508 0 0 0-110.113-2.326c-36.699.136-73.38 1.206-110.027 3.175a2290.014 2290.014 0 0 0-61.96 4.177l-.84 3.362 101.522-8.897c33.835-2.971 67.687-5.926 101.521-8.897l57.158-5.009c1.046-.085 3.018-.713 3.378-1.85.36-1.138-.771-1.546-1.766-1.563a3144.297 3144.297 0 0 0-115.978-.883A3158.4 3158.4 0 0 0 69.51 13.344a3078.992 3078.992 0 0 0-65.045 3.787c-1.046.067-3.31.797-3.482 2.054-.188 1.392 1.767 1.358 2.641 1.29 34.23-2.088 68.459-4.177 102.688-6.282L209 7.911l58.186-3.549c1.046-.068 3.018-.73 3.379-1.834.36-1.103-.755-1.613-1.767-1.562l-145.406 7.25-41.071 2.038c-1.338.068-3.31.39-4.064 1.664-.687 1.171.583 1.85 1.663 1.783h.017Z" fill="#EB7A53"/></svg>