<svg width="294" height="54" fill="none" xmlns="http://www.w3.org/2000/svg"><path d="M39.69 8.429c73.681-1.694 147.44.038 220.967 5.119l1.771-7.351c-30.797 8.66-63.942 7.928-95.663 9.43-33.337 1.577-66.675 3.079-100.051 4.618l-57.167 2.54c-2.964.116-7.43.886-9.123 3.772-1.579 2.695 1.347 4.08 3.734 4.042 72.41-1.04 145.053-2.079 217.233 5.234 20.595 2.078 41.075 4.965 61.478 8.583l5.159-7.544c-74.914 8.968-150.404 11.316-225.78 7.467-2.887-.154-7.468 1.04-9.046 3.734-1.579 2.694 1.386 3.887 3.695 4.04 76.415 4.158 153.215 1.464 229.206-7.581 2.348-.27 6.044-1.424 7.353-3.657 1.116-1.924-.116-3.502-2.195-3.887-72.18-13.01-145.707-15.242-218.927-14.895-20.942.115-41.883.423-62.825.73l-5.351 7.814c68.292-3.04 136.661-5.62 204.914-9.468 18.594-1.04 37.188-2.964 55.165-8.006 4.466-1.232 9.278-6.812 1.771-7.351C192.48.654 118.76-1.04 45.079.616c-2.964.077-7.468.923-9.124 3.772-1.578 2.694 1.348 4.118 3.735 4.04Z" fill="#BF90EA"/></svg>