<svg xmlns="http://www.w3.org/2000/svg" width="180" height="189" fill="none"><g clip-path="url('#clip0_938_5700')" fill="#F6ECC9"><path d="M82.367 50.413c0-17.233-3.139-38.452-20.357-47.245-18.45-9.435-39.927 3.876-50.666 18.694-24.728 34.088-4.753 78.896 19.123 107.535 14.685 17.609 33.853 32.471 41.43 54.797 1.009 2.991 9.64.554 8.654-2.303-6.188-18.185-19.998-31.873-32.889-45.628-12.89-13.754-23.83-28.462-31.14-45.605-7.308-17.144-10.626-35.616-4.954-53.225 2.825-8.705 7.847-16.79 14.617-23.035 5.83-5.36 13.63-10.322 21.948-9.303 9.887 1.196 17.263 9.524 20.872 18.163 3.61 8.638 4.708 18.716 4.708 28.218 0 3.544 8.654 1.727 8.654-1.063Z"/><path d="M82.635 50.81c9.08-15.814 23.854-28.461 40.802-35.483 8.183-3.389 16.994-5.426 25.894-5.382 2.219 0 4.461.133 6.658.399 1.861.243 5.134.288 6.771 1.262 1.636.975 3.318 3.5 4.439 5.117a22.53 22.53 0 0 1 3.094 6.334c2.623 8.528-.314 17.498-4.484 25.051-4.551 8.218-10.604 15.55-16.769 22.615-7.376 8.439-15.2 16.5-22.464 25.05a539.733 539.733 0 0 0-21.544 27.089c-15.066 20.267-28.584 41.596-40.556 63.768-1.928 3.566 6.726 2.658 8.07.177 11.255-20.865 23.9-40.998 37.911-60.18a534.144 534.144 0 0 1 22.889-29.126c7.959-9.435 16.142-17.83 24.033-26.89 6.591-7.574 13.115-15.481 17.644-24.474 4.035-7.996 6.726-17.277 3.721-26.07-1.479-4.274-4.595-9.701-8.496-12.248-1.771-1.174-4.439-1.418-6.524-1.772a65.796 65.796 0 0 0-7.779-.864c-10.156-.576-20.379 1.174-29.952 4.408-21.073 7.11-40.331 21.795-51.384 41.042-1.995 3.478 6.659 2.636 8.071.177h-.045Z"/></g><defs><clipPath id="clip0_938_5700"><path fill="#fff" d="M0 0h180v189H0z"/></clipPath></defs></svg>