<svg width="534" height="14" fill="none" xmlns="http://www.w3.org/2000/svg"><g clip-path="url('#clip0_819_4901')" fill="#D5B8F0"><path d="M1.907 8.465c18.235-.773 36.514-1.16 54.75-2.34 1.355-.081 3.366-.55 4.126-2.34.715-1.69-.61-2.544-1.698-2.523-18.235.386-36.485 1.546-54.72 2.34-1.356.06-3.412.57-4.157 2.36-.715 1.669.611 2.584 1.713 2.523l-.014-.02ZM72.568 7.346s.134 0 .194.02l-.7-.101c.193.04.372.081.566.162l-.581-.264c.283.122.536.305.774.529l-.417-.407c.373.366.67.814.909 1.343l-.224-.53c.075.184.135.326.135.55v-.61c0 .244-.03.468-.105.692l.224-.631c-.06.183-.15.346-.254.509l.403-.61c-.075.1-.164.203-.239.304l.567-.57c-.135.143-.522.408.06 0 .535-.366.327-.223.193-.142-.268.143.998-.427.596-.285-.313.122 1.043-.244.506-.142-.372.081.864 0 .551-.04h-.178l.7.1a1.518 1.518 0 0 1-.402-.121l.58.244a1.572 1.572 0 0 1-.372-.244l.417.386c-.223-.203-.387-.488-.521-.793l.223.529c-.193-.468-.268-.977-.283-1.526v.61c0-.59.12-1.16.298-1.71l-.208.632c.134-.367.283-.692.491-.977l-.402.61c.134-.183.268-.346.417-.508l-.566.57c.12-.123.253-.224.387-.346.269-.224-.73.468-.432.305.06-.04.12-.082.18-.102.461-.265-.478.224-.478.224.06-.02.135-.061.194-.082.06-.02.134-.04.194-.06 0 0-.984.244-.492.142.134-.02.268-.061.417-.061.239-.02.596.02-.432.02h.209c.313 0 .626.02.938.061l-.7-.102c.298.041.581.123.864.245l-.58-.245c.223.102.431.224.625.407l-.417-.386c.179.183.343.386.462.63l-.224-.528c.12.284.179.59.194.936v-.61c0 .304-.06.569-.15.854l.224-.631a4.73 4.73 0 0 1-.462.895l.403-.61c-.209.305-.447.59-.7.834l.566-.57c-.105.102-.224.204-.328.306-.045.04-.09.06-.134.101-.343.265.76-.508.462-.325-.105.06-.224.142-.328.203-.06.041-.12.061-.194.102-.283.142.983-.427.552-.265-.12.041-.239.082-.343.123-.283.101 1.013-.245.58-.163a.409.409 0 0 0-.148.04c-.06 0-.134 0-.194.02-.268.062.924-.02.536-.04-.119 0-.238 0-.357-.02l.7.102a1.253 1.253 0 0 1-.462-.143l.581.265c-.149-.061-.268-.163-.402-.265l.417.407a1.844 1.844 0 0 1-.432-.63l.224.528a2.9 2.9 0 0 1-.209-1.017v.61c0-.285.06-.55.134-.814l-.223.631c.074-.224.178-.427.298-.63l-.403.61c.105-.163.209-.305.343-.427l-.566.57c.238-.225.492-.286-.387.223.402-.244-.865.346-.522.224.15-.061.06-.04-.298.081a2.527 2.527 0 0 1-.953.122h.283l-.7-.101c.149.02.298.081.447.142l-.581-.264c.208.101.402.244.58.407l-.417-.407c.492.468.805 1.119 1.162 1.75.313.57 1.192.732 1.64.732.684 0 1.34-.163 1.996-.468.566-.264 1.206-.63 1.638-1.22.373-.51.67-1.039.596-1.791-.119-1.282-.968-2.26-1.713-2.89-1.296-1.079-3.04-.956-4.454-.468-.76.264-1.58.712-2.235 1.323-.566.529-1.177 1.18-1.535 2.014-.417.997-.64 2.218-.223 3.297.164.427.328.793.61 1.099.477.529.924.773 1.52.997.894.325 1.967.305 2.86.101 2.086-.468 4.276-1.566 5.751-3.703.745-1.079 1.445-2.422 1.207-3.989-.179-1.139-.968-2.014-1.728-2.421-.984-.53-2.041-.733-3.099-.753-1.192-.02-2.443.163-3.575.651-1.297.57-2.667 1.343-3.62 2.727-.641.916-1.178 1.974-1.356 3.235-.134.916-.105 1.995.223 2.829.179.468.373.936.685 1.262.477.529.939.813 1.535 1.017 1.46.488 3.173.081 4.514-.732 1.162-.713 2.324-1.75 2.771-3.46.134-.509.164-1.16 0-1.648-.224-.61-.492-1.2-.879-1.669-.998-1.22-2.22-1.689-3.53-1.79-.79-.061-1.744.244-2.474.671-.551.326-1.37.916-1.683 1.69-.239.548-.388 1.26 0 1.77.447.59 1.102.712 1.698.752v-.02ZM98.027 9.238c15.271-.447 30.571-.65 45.841-1.322 1.356-.061 3.382-.57 4.142-2.34.76-1.77-.611-2.524-1.699-2.524-15.27.204-30.555.855-45.826 1.303-1.355.04-3.411.57-4.156 2.36-.745 1.79.61 2.564 1.713 2.523h-.015ZM170.179 5.169c.298-.082.581.04-.253 0-.462-.082-.581-.102-.373-.061.075 0 .134.04.194.06l-.313-.142c.089.04.164.102.253.143.119.081.239.183.343.284l-.417-.407c.253.265.462.57.64.957v-1.77c-.208.468-.432.915-.685 1.363-.119.224-.253.427-.372.63-.164.265-.134.204.104-.162-.075.102-.134.203-.209.285-.283.386-.581.753-.893 1.099-.075.081-.164.162-.239.244-.223.224-.164.163.209-.204-.149.102-.298.265-.432.387s-.298.244-.447.366c-.686.53.521-.305.044-.02-.178.102-.357.224-.551.325a1.347 1.347 0 0 1-.283.143c-.313.163-.194.102.387-.183-.193.06-.387.163-.581.224-.089.04-.193.06-.297.101-.328.102-.194.061.387-.101l-.313.06c.283-.06.581-.06.864.021-.253-.081-.208-.04.134.081a.733.733 0 0 1-.238-.183l.417.387a2.056 2.056 0 0 1-.432-.63l.223.528a2.903 2.903 0 0 1-.193-1.078v.61c0-.59.134-1.14.298-1.668l-.209.63c.149-.407.328-.814.536-1.18.045-.081.12-.183.164-.264-.283.63-.268.366-.104.183.06-.061.134-.143.179-.224.193-.285-.551.509-.253.244.193-.163.372-.325.551-.488.089-.082.193-.143.283-.224.089-.082.462-.326 0 0-.462.325-.075.06.015 0 .089-.061.208-.122.298-.183.268-.163 1.087-.448.029-.061.209-.082.418-.183.641-.245.104-.04.209-.06.328-.101.447-.143-.313.122-.358.101.134.062.507-.101.656-.142.104 0 .223-.02.328-.04.417-.062-.224.06-.298 0 .149.06.402 0 .551 0 .104 0 .551.06.059 0-.447-.062-.104 0 0 0 .09.02.179.06.269.08.268.062-.433-.243-.194-.08.179.121.357.223.536.366l-.417-.407c.253.244.462.529.626.875l-.224-.53c.119.326.179.631.194.998v-.61c0 .406-.06.772-.164 1.16l.209-.632c-.06.163-.373.733-.09.265.328-.509.7-.692 1.162-.957.641-.305.835-.407.566-.346-.461.123-.059.062 1.222-.223-1.177 0-2.696.468-3.575 1.648-.254.325-.492.712-.596 1.18-.12.57.208 1.282.61 1.465 1.446.631 2.906.448 4.291-.407.894-.55 1.818-1.383 2.279-2.604.596-1.588.522-3.399-.551-4.579-1.192-1.302-2.815-1.668-4.305-1.607-1.967.081-3.859.61-5.691 1.546-1.475.733-3.099 1.852-4.231 3.358-.849 1.119-1.684 2.645-1.848 4.293-.178 1.77.403 3.236 1.639 3.928 2.056 1.14 4.44.203 6.436-.753 2.995-1.425 5.766-4.233 7.419-7.957.298-.671.298-1.119 0-1.77-1.013-2.157-3.382-2.666-5.08-2.218-.834.224-1.654.488-2.384 1.099-.402.346-1.117 1.078-1.191 1.81-.179 1.853 1.817 2.076 2.726 1.853l-.015.06Z"/><path d="M168.332 8.079c1.117 0 2.816-.489 3.427-1.934.61-1.444-.507-2.096-1.416-2.096-1.117 0-2.815.489-3.426 1.934-.611 1.444.506 2.096 1.415 2.096Z"/><path d="M170.193 7.224c1.118 0 2.816-.489 3.427-1.933.611-1.445-.507-2.096-1.415-2.096-1.118 0-2.816.488-3.427 1.933-.611 1.445.507 2.096 1.415 2.096Z"/><path d="M169.568 8.079c1.118 0 2.816-.489 3.427-1.934.611-1.444-.507-2.096-1.415-2.096-1.118 0-2.816.489-3.427 1.934-.611 1.444.507 2.096 1.415 2.096ZM196.994 14l23.866-1.22c7.956-.408 16.001-.428 23.941-1.283 1.088-.122 2.995-.997 3.412-2.564.417-1.567-.804-2.157-1.788-2.177-7.806-.082-15.672.753-23.479 1.16l-23.494 1.2c-1.356.061-3.397.57-4.156 2.36-.701 1.67.596 2.585 1.713 2.524h-.015ZM263.336 9.422s.119.183.163.284l-.223-.529c.074.184.104.346.104.55v-.61c0 .203-.044.386-.104.57l.223-.632a2.553 2.553 0 0 1-.268.53l.403-.611s-.135.163-.209.244c.492-.468.626-.59.402-.407-.253.204-.074.081.522-.366-.283.163-.075.06.625-.285.745-.183.969-.244.656-.183a2.812 2.812 0 0 1 1.236.04.344.344 0 0 1-.134-.04l.581.264a.666.666 0 0 1-.238-.162l.417.406a1.565 1.565 0 0 1-.387-.59l.223.53a2.896 2.896 0 0 1-.179-.957v.61c0-.427.075-.834.194-1.22l-.223.63c.089-.264.208-.488.342-.712l-.402.61.164-.223c.223-.305-.417.407-.387.386.342-.305-.82.51-.432.306l-.656.305c.209-.081.134-.061-.238.061-.343.081-.447.102-.283.081.253-.04.059-.04-.552.041.12 0 .462.04-.059-.04-.566-.082.089.06.223.121l-.581-.264c.328.163.626.366.894.63l-.417-.406c.387.386.73.854.983 1.404l-.223-.53c.119.286.193.55.193.876v-.61c0 .203-.029.366-.089.549l.224-.631a1.79 1.79 0 0 1-.149.305l.402-.61-.149.203c.432-.61.596-.57.328-.325-.328.284.759-.489.461-.326-.432.244.581-.265.552-.244-.09.02-.164.06-.254.102-.432.162.969-.224.507-.143-.164.02-.805.102-.119.04.685-.06.059 0-.105-.02-.163-.02-.327-.02-.491-.04-.298-.04.76.142.387.06-.089 0-.179-.04-.268-.06a2.241 2.241 0 0 1-.507-.183l.581.264a2.928 2.928 0 0 1-.61-.386l.417.406a2.372 2.372 0 0 1-.507-.712l.224.53a2.918 2.918 0 0 1-.224-1.018v.61c0-.366.075-.712.179-1.037l-.223.63c.104-.264.223-.488.357-.712l-.402.61c.089-.121.179-.223.268-.345-.477.63-.521.508-.268.285-.581.386-.73.488-.462.325.194-.102.119-.06-.238.102-.358.163-.432.203-.239.122-.655.163-.819.204-.491.142.506-.08-.79 0-.313.041h.238c-.506-.081-.626-.102-.342-.04.283.08.551.162.834.284l-.581-.264c.655.285 1.311.63 1.892 1.18l-.417-.407c.387.387.745.814.998 1.384l-.224-.53c.12.306.194.611.209.957v-.61c0 .223-.045.427-.104.63l.223-.63a2.668 2.668 0 0 1-.194.386l.403-.61s-.105.102-.119.163l.432-.448.566-.387c-.388.245.894-.366.536-.244s.939-.244.596-.163c-.492.102.849 0 .343-.04h-.269c-.223-.02-.059 0 .477.06-.536-.121-1.073-.243-1.594-.467l.581.264a4.13 4.13 0 0 1-.939-.61l.418.407a2.758 2.758 0 0 1-.566-.814l.223.529a2.665 2.665 0 0 1-.179-.977v.61c0-.345.06-.671.179-.997l-.223.631a3.04 3.04 0 0 1 .193-.407l-.402.61s.089-.101.119-.162c-.134.203-.789.712-1.028.855.119-.061-.998.447-.64.305a3.12 3.12 0 0 1-1.028.224c-.343 0-.418 0-.239.04.671.061 1.371-.183 1.997-.468.566-.264 1.206-.63 1.638-1.22.254-.346.507-.733.611-1.221.134-.631-.223-1.282-.626-1.506-1.325-.733-2.86-.468-4.156.285-.849.488-1.684 1.2-2.205 2.238-.477.956-.73 2.401-.328 3.48.596 1.566 1.728 2.238 2.905 2.686 1.177.447 2.429.59 3.65.488.835-.081 1.669-.407 2.444-.834.864-.489 1.817-1.303 2.294-2.463.298-.712.447-1.485.283-2.299-.119-.63-.447-1.262-.775-1.75-.7-.997-1.624-1.628-2.562-2.096-.611-.305-1.237-.59-1.877-.732-1.192-.245-2.369-.163-3.546.203-1.52.488-3.158 1.648-4.052 3.46-.268.549-.492 1.22-.537 1.871-.044.937.09 1.608.492 2.381.581 1.12 1.728 1.649 2.667 1.872 1.132.265 2.369.346 3.516.102 1.549-.346 3.262-.997 4.424-2.543.418-.55.85-1.262.909-2.096.075-.977-.164-1.69-.596-2.463-1.951-3.459-6.093-3.215-8.551-.997-.983.875-1.967 2.28-2.026 3.989-.03.936.059 1.505.432 2.279.372.773 1.043 1.14 1.653 1.343 1.252.386 2.652 0 3.814-.651.909-.51 1.669-1.242 2.309-2.26.641-1.017.879-2.644.105-3.703-.432-.57-1.132-.732-1.699-.753-.804-.04-1.743.224-2.473.672-.61.366-1.34.875-1.683 1.689-.238.57-.387 1.241 0 1.77l.045-.101ZM290.836 7.529c16.939.509 33.848 1.75 50.727 3.54 1.296.143 3.397-.67 4.082-2.299.745-1.75-.64-2.36-1.683-2.482-16.865-1.974-33.774-3.114-50.683-3.643-1.341-.04-3.426.631-4.156 2.36-.73 1.73.625 2.504 1.713 2.524ZM362.227 5.677c-.105.387-.224.753-.358 1.12l.224-.631c-.224.61-.462 1.22-.79 1.73l.402-.611a4.411 4.411 0 0 1-.432.55l.566-.57s-.134.122-.208.183c-.254.203-.09.081.476-.326-.193.102-.104.082.254-.102a3.274 3.274 0 0 1 1.281-.346c.641-.04.253 0 .089-.04l.701.102c-.135-.02-.254-.062-.373-.102l.566.244a1.696 1.696 0 0 1-.536-.366l.417.386a2.313 2.313 0 0 1-.477-.712l.224.53a2.166 2.166 0 0 1-.149-.693v.61c0-.223.044-.427.104-.63l-.208.63c.044-.121.104-.223.163-.325l-.402.61c.09-.121.179-.244.283-.345l-.566.57c.104-.102.224-.184.328-.285.03-.02-.79.508-.447.305a.78.78 0 0 1 .179-.102.796.796 0 0 0 .178-.102c.373-.203-.595.265-.536.245.149-.041.283-.102.432-.163.328-.122-.894.224-.551.142.06 0 .134-.02.194-.04.149-.02.67-.082.044-.02-.625.06-.104 0 .045 0s.298 0 .447.04l-.7-.102c.387.061.774.163 1.147.326l-.581-.244c.372.162.73.386 1.073.65l-.641-1.526c-.119.448-.238.896-.387 1.323l.223-.63c-.223.63-.477 1.2-.819 1.729l.402-.61c-.194.284-.387.549-.611.773l.566-.57a1.3 1.3 0 0 1-.238.204c-.298.264.551-.367.491-.326l-.223.122c-.045.02.998-.448.551-.264-.268.101-.581 0 .566-.143a.655.655 0 0 0-.193.04c-.328.062.908 0 .506-.04h-.238l.7.102a2.597 2.597 0 0 1-.536-.143l.581.265a2.482 2.482 0 0 1-.552-.366l.418.407a2.359 2.359 0 0 1-.522-.753l.224.529a3.182 3.182 0 0 1-.224-1.2v.61c0-.428.09-.835.224-1.221l-.224.63a5.05 5.05 0 0 1 .358-.732l-.402.61c.089-.122.163-.223.268-.325l-.566.57s.119-.102.178-.163c-.61.407-.789.529-.521.366.179-.102.089-.061-.283.122-.373.163-.462.204-.283.143-.73.162-.954.223-.671.183.254-.04.045-.02-.61.04h.149l-.701-.101c.12.02.239.06.358.101l-.581-.264c.164.081.313.183.447.326l-.417-.407c.268.264.476.59.64.976l-.223-.529c.164.428.268.875.268 1.343v-.61c0 .346-.06.712-.104 1.038-.209 1.648 1.445 1.872 2.264 1.81a4.607 4.607 0 0 0 3.65-2.258c.522-.855.641-2.096.388-3.134a4.63 4.63 0 0 0-1.505-2.462 2.901 2.901 0 0 0-1.177-.59c-.983-.265-1.967-.122-2.935.183-1.371.427-2.622 1.424-3.516 2.89-.894 1.465-1.102 3.907 0 5.33.626.815 1.49 1.303 2.324 1.446 1.55.264 3.069-.041 4.514-.835 1.237-.691 2.324-1.831 3.129-3.296.536-.977.894-2.137 1.177-3.276.164-.692-.268-1.242-.641-1.526-1.296-1.018-2.905-1.445-4.395-1.364-1.043.061-2.071.224-3.084.672-1.191.529-2.383 1.18-3.337 2.32-.685.813-1.192 1.933-1.043 3.215.075.671.447 1.322.85 1.75 1.966 2.034 4.901 1.383 6.867-.306a7.742 7.742 0 0 0 1.982-2.625c.387-.854.685-1.79.953-2.726.194-.652-.283-1.282-.64-1.547-.581-.407-1.46-.427-2.071-.305-1.356.264-3.024 1.038-3.576 2.93l-.029-.04ZM389.758 9.849h22.049c7.344 0 14.793.488 22.123-.122 1.073-.082 2.98-.997 3.382-2.544.402-1.546-.819-2.075-1.773-2.157-7.151-.63-14.481-.06-21.647-.06h-21.676c-1.341 0-3.426.59-4.156 2.34-.73 1.75.61 2.522 1.713 2.522l-.015.02ZM456.814 5.29c-.105.102-.224.184-.343.286l.7-.489c-.164.122-.343.204-.521.305l.819-.386a4.172 4.172 0 0 1-.462.163l.849-.224c-.164.04-.312.06-.476.081l.789-.06h-.566l.7.1h-.074l1.207 1.75c.074-.284.149-.59.238-.854l-.209.631c.149-.427.328-.834.566-1.2l-.402.61a3.1 3.1 0 0 1 .432-.53l-.566.57c.09-.08.179-.162.268-.223l-.7.488c.09-.061.164-.102.253-.142l-.819.386s.134-.06.209-.081l-.85.224c.09-.02.179-.041.269-.041l-.79.061h.313l-.7-.102c.163.02.312.061.461.143l-.566-.244c.268.122.507.284.73.508l-.417-.386c.343.346.641.753.864 1.261l-.223-.529c.193.468.313.977.328 1.526v-.61c0 .366-.06.732-.164 1.078l.208-.63a2.625 2.625 0 0 1-.357.712l.402-.61c-.104.162-.224.284-.343.406l.566-.57a2.622 2.622 0 0 1-.342.285l.7-.488a6.43 6.43 0 0 1-.328.183l.82-.386c-.105.04-.224.081-.343.122l.849-.224-.343.06.79-.06h-.462l.7.102a1.271 1.271 0 0 1-.447-.143l.581.265a2.358 2.358 0 0 1-.566-.387l.417.407a2.842 2.842 0 0 1-.581-.875l.224.53a4.398 4.398 0 0 1-.313-1.67V7c0-.508.075-.996.238-1.464l-.223.63c.104-.284.223-.549.372-.793l-.402.61c.09-.142.194-.264.298-.366l-.566.57c.075-.081.164-.142.253-.203l-.715.488c.09-.061.179-.102.268-.163l-.819.387c.089-.041.179-.082.283-.102l-.849.224c.089-.02.194-.04.283-.04l-.79.06h.403l-.701-.102c.179.02.343.082.507.163l-.581-.264c.238.122.462.264.67.468l-.417-.407c.268.264.492.59.671.976l-.224-.529c.104.265.179.53.224.814l.625-1.851a9.88 9.88 0 0 1-.968 1.119l.566-.57a8.61 8.61 0 0 1-1.281 1.058l.715-.488c-.402.264-.805.509-1.237.712l.805-.366c-.373.163-.73.346-1.103.508l.79-.366a2.95 2.95 0 0 1-.372.163c-.671.264-1.49.692-1.997 1.384-.313.407-.596.854-.596 1.485a.775.775 0 0 0 .105.55.986.986 0 0 0 .506.63c.611.367 1.326.407 1.982.285a11.012 11.012 0 0 0 5.467-2.849c.402-.386.819-.793 1.192-1.24.536-.632 1.251-1.405 1.087-2.483a3.423 3.423 0 0 0-.223-.774c-.179-.427-.358-.854-.626-1.2-1.475-1.893-3.679-1.933-5.542-1.343a6.299 6.299 0 0 0-4.275 4.802 6.863 6.863 0 0 0-.03 2.34c.044.285.119.55.223.814.164.427.343.855.596 1.18 1.43 1.913 3.74 1.77 5.527 1.18 1.788-.59 3.799-2.116 4.38-4.66.328-1.444-.119-3.031-.834-4.11-1.177-1.73-3.114-2.279-4.767-1.872-1.46.346-2.98 1.058-4.038 2.564-.342.488-.67.997-.908 1.608-.209.57-.418 1.14-.552 1.75-.223.976.611 1.668 1.207 1.77.447.061.879.163 1.326.142a8.374 8.374 0 0 0 2.22-.386c.953-.285 1.922-.834 2.741-1.547.447-.386 1.073-1.037 1.192-1.81.104-.672-.194-1.262-.641-1.527-.626-.387-1.385-.427-2.071-.305-.819.163-1.668.468-2.368 1.099l.015-.061ZM482.603 9.483a348.894 348.894 0 0 1 47.032.712c1.326.102 3.442-.672 4.157-2.36.745-1.771-.641-2.443-1.713-2.524a345.594 345.594 0 0 0-47.033-.712c-1.356.081-3.397.55-4.157 2.36-.7 1.669.596 2.585 1.714 2.524Z"/></g><defs><clipPath id="clip0_819_4901"><path fill="#fff" d="M0 0h534v14H0z"/></clipPath></defs></svg>