<svg width="181" height="9" fill="none" xmlns="http://www.w3.org/2000/svg"><g clip-path="url('#clip0_719_16371')" fill="#D5B8F0"><path d="M-7.047 6.057s.083.117.114.183l-.155-.34a.823.823 0 0 1 .072.353V5.86c0 .131-.03.249-.072.367l.155-.406c-.052.131-.114.236-.186.34l.28-.392s-.094.105-.146.157c.342-.301.435-.38.28-.262-.176.131-.052.053.362-.235-.197.104-.052.039.435-.183.517-.118.672-.157.455-.118.29-.052.58-.04.86.026-.032 0-.063-.013-.094-.026l.404.17a.468.468 0 0 1-.166-.105l.29.262a1.008 1.008 0 0 1-.27-.38l.156.34a1.735 1.735 0 0 1-.124-.614v.392c0-.274.052-.536.134-.785l-.155.406c.062-.17.145-.314.238-.458l-.28.393.115-.144c.155-.197-.29.261-.27.248.239-.196-.569.327-.3.196l-.455.197c.145-.053.093-.04-.166.039-.238.052-.31.065-.196.052.176-.026.041-.026-.383.026.082 0 .32.027-.042-.026-.393-.052.062.04.155.079l-.403-.17c.228.104.435.235.62.405l-.289-.261c.27.248.507.549.683.902l-.155-.34c.083.183.134.353.134.563v-.393c0 .13-.02.236-.062.353l.156-.405c-.031.078-.062.13-.104.196l.28-.392-.104.13c.3-.392.414-.366.228-.209-.228.183.528-.314.32-.21-.3.158.404-.17.384-.156-.063.013-.114.039-.176.065-.3.105.672-.144.352-.091-.114.013-.56.065-.083.026.476-.04.041 0-.073-.013-.114-.013-.227-.013-.341-.026-.207-.027.528.091.269.039-.062 0-.124-.026-.186-.04a1.639 1.639 0 0 1-.352-.117l.403.17a2.07 2.07 0 0 1-.424-.249l.29.262a1.538 1.538 0 0 1-.352-.458l.155.34a1.755 1.755 0 0 1-.155-.654v.393c0-.236.052-.458.124-.668l-.155.406c.072-.17.155-.314.248-.458l-.28.393c.063-.079.125-.144.187-.223-.331.406-.362.327-.186.183-.404.249-.507.314-.321.21.134-.066.083-.04-.166.065-.248.105-.3.13-.165.079-.456.104-.57.13-.342.091.352-.052-.548 0-.217.026h.165c-.352-.052-.434-.065-.238-.026.197.052.383.105.58.183l-.404-.17c.456.183.911.406 1.315.759l-.29-.262c.269.249.517.524.693.89l-.155-.34c.083.196.135.392.145.615v-.393c0 .144-.031.275-.072.406l.155-.406a1.74 1.74 0 0 1-.135.249l.28-.393s-.073.066-.083.105l.3-.288.393-.249c-.269.157.621-.235.373-.156-.248.078.652-.157.414-.105-.342.065.59 0 .238-.026h-.186c-.155-.013-.042 0 .331.039-.373-.079-.745-.157-1.107-.3l.403.17a2.906 2.906 0 0 1-.652-.393l.29.261a1.785 1.785 0 0 1-.393-.523l.155.34a1.598 1.598 0 0 1-.124-.628v.393c0-.223.041-.432.124-.641l-.155.405c.041-.091.082-.183.134-.261l-.28.392s.063-.065.084-.105c-.094.131-.549.458-.715.55.083-.04-.693.288-.445.196-.238.092-.476.13-.714.144-.238 0-.29 0-.166.026.466.04.953-.118 1.387-.3.394-.17.839-.406 1.139-.786.176-.222.352-.47.424-.785.094-.405-.155-.824-.434-.968-.922-.47-1.988-.3-2.888.184-.59.314-1.17.771-1.532 1.439-.331.614-.507 1.543-.228 2.236.414 1.008 1.201 1.44 2.019 1.727.817.288 1.687.38 2.535.314.58-.052 1.16-.261 1.698-.536.6-.314 1.263-.837 1.594-1.583.207-.458.31-.955.197-1.478-.083-.406-.31-.811-.539-1.125-.486-.641-1.128-1.047-1.78-1.348-.424-.196-.859-.379-1.304-.47a5.242 5.242 0 0 0-2.463.13c-1.056.314-2.195 1.06-2.816 2.224-.186.353-.341.785-.372 1.204-.031.601.062 1.033.341 1.53.404.72 1.2 1.06 1.853 1.204.787.17 1.646.222 2.443.065 1.076-.222 2.266-.641 3.074-1.635.29-.353.59-.811.631-1.348.052-.627-.114-1.085-.414-1.582-1.356-2.224-4.233-2.067-5.941-.641-.683.562-1.366 1.465-1.408 2.564-.02.601.042.968.3 1.465.26.497.725.732 1.15.863.869.249 1.842 0 2.649-.419.631-.327 1.16-.798 1.604-1.452.445-.654.611-1.7.073-2.38-.3-.367-.787-.471-1.18-.484-.56-.027-1.211.143-1.718.431-.425.236-.932.563-1.17 1.086-.166.366-.27.798 0 1.138l.031-.065ZM12.06 4.84c11.769.327 23.517 1.125 35.243 2.276.901.092 2.36-.431 2.837-1.478.517-1.125-.446-1.517-1.17-1.596-11.717-1.269-23.464-2.001-35.212-2.341-.932-.027-2.38.405-2.888 1.517-.507 1.112.435 1.609 1.19 1.622ZM61.659 3.65a8.074 8.074 0 0 1-.248.72l.155-.406c-.155.392-.321.784-.549 1.112l.28-.393c-.093.13-.197.249-.3.353l.393-.366s-.093.078-.145.118c-.176.13-.062.052.331-.21-.134.066-.072.053.176-.065a2.42 2.42 0 0 1 .89-.222c.445-.027.176 0 .062-.027l.487.066a1.56 1.56 0 0 1-.259-.066l.393.157a1.182 1.182 0 0 1-.372-.235l.29.249a1.479 1.479 0 0 1-.332-.458l.156.34a1.311 1.311 0 0 1-.104-.445v.392c0-.143.031-.274.073-.405l-.145.405c.03-.078.072-.143.114-.209l-.28.393c.062-.079.124-.157.197-.223l-.393.367c.072-.066.155-.118.227-.184.02-.013-.548.327-.31.197.041-.027.083-.053.124-.066a.569.569 0 0 0 .124-.065c.259-.131-.414.17-.373.157.104-.026.197-.066.3-.105.228-.078-.62.144-.382.092a.49.49 0 0 0 .134-.026c.104-.014.466-.053.031-.014-.434.04-.072 0 .031 0 .104 0 .207 0 .31.027l-.486-.066c.27.04.539.105.797.21l-.403-.157c.258.104.507.248.745.418l-.445-.981c-.083.288-.166.576-.27.85l.156-.405a5.044 5.044 0 0 1-.57 1.112l.28-.393c-.134.183-.269.353-.424.497l.393-.366a.891.891 0 0 1-.166.13c-.206.17.384-.235.342-.208l-.155.078c-.031.013.693-.288.383-.17-.186.065-.404 0 .393-.092a.49.49 0 0 0-.134.027c-.228.039.63 0 .352-.027h-.166l.486.066c-.124-.013-.248-.052-.372-.092l.403.17a1.74 1.74 0 0 1-.383-.235l.29.261a1.524 1.524 0 0 1-.362-.484l.155.34a1.912 1.912 0 0 1-.155-.771v.392c0-.274.062-.536.155-.785l-.155.406c.072-.17.155-.327.248-.471l-.28.392a1.6 1.6 0 0 1 .187-.209l-.393.366s.083-.065.124-.104c-.424.261-.548.34-.362.235.124-.065.062-.04-.197.079-.259.104-.32.13-.197.091-.507.105-.662.144-.465.118.176-.026.03-.013-.425.026h.104l-.487-.065c.083.013.166.039.249.065l-.404-.17c.114.052.218.118.31.21l-.29-.262c.187.17.332.38.446.628l-.155-.34c.114.274.186.562.186.863v-.393c0 .223-.041.458-.072.668-.145 1.06 1.004 1.203 1.573 1.164.942-.066 1.925-.51 2.536-1.452.362-.55.445-1.348.269-2.015a2.948 2.948 0 0 0-1.046-1.583 2.08 2.08 0 0 0-.817-.379c-.683-.17-1.367-.078-2.04.118-.952.275-1.821.916-2.442 1.857-.621.942-.766 2.512 0 3.428a2.671 2.671 0 0 0 1.615.928c1.076.17 2.132-.026 3.136-.536.859-.445 1.614-1.177 2.173-2.119.373-.628.621-1.374.818-2.106.114-.445-.186-.798-.445-.981-.9-.654-2.018-.929-3.053-.877-.725.04-1.44.144-2.143.432-.828.34-1.656.759-2.318 1.491-.477.524-.828 1.243-.725 2.067.052.432.31.85.59 1.125 1.366 1.308 3.405.89 4.772-.196a5.036 5.036 0 0 0 1.376-1.688c.27-.549.476-1.15.663-1.753.134-.418-.197-.824-.445-.994-.404-.261-1.015-.274-1.44-.196-.941.17-2.1.667-2.483 1.884l-.021-.026ZM80.787 6.331h15.319c5.103 0 10.278.314 15.37-.078.746-.052 2.07-.641 2.35-1.635.279-.994-.569-1.335-1.232-1.387-4.968-.405-10.06-.04-15.039-.04h-15.06c-.931 0-2.38.38-2.888 1.505-.507 1.125.425 1.622 1.19 1.622l-.01.013ZM127.375 3.401c-.073.066-.155.118-.238.183l.486-.314c-.114.079-.238.131-.362.197l.569-.249c-.103.04-.217.079-.321.105l.59-.144c-.113.026-.217.039-.331.052l.549-.04h-.394l.487.066h-.052l.839 1.125c.051-.183.103-.38.165-.55l-.145.406a3.44 3.44 0 0 1 .394-.771l-.28.392c.093-.13.197-.249.3-.34l-.393.366c.062-.052.124-.104.186-.144l-.486.314c.062-.039.114-.065.176-.091l-.569.248s.093-.039.144-.052l-.59.144c.063-.013.125-.026.187-.026l-.549.039h.218l-.487-.066c.114.014.217.04.321.092l-.393-.157c.186.079.352.183.507.327l-.29-.248c.238.222.445.484.6.81l-.155-.34c.135.301.217.628.228.982v-.393c0 .236-.042.471-.114.693l.145-.405c-.062.17-.145.327-.249.458l.28-.393a1.671 1.671 0 0 1-.238.262l.393-.366c-.072.065-.155.13-.238.183l.486-.314c-.072.04-.144.078-.227.118l.569-.249a6.071 6.071 0 0 1-.238.079l.59-.144-.238.039.548-.04h-.32l.486.066a.932.932 0 0 1-.31-.092l.403.17a1.632 1.632 0 0 1-.393-.248l.29.262c-.166-.157-.3-.34-.404-.563l.155.34a2.646 2.646 0 0 1-.217-1.072V4.5c0-.327.052-.641.166-.942l-.156.406c.073-.183.156-.354.259-.51l-.279.392c.062-.092.134-.17.207-.236l-.394.367c.052-.053.114-.092.176-.131l-.497.314c.063-.04.125-.066.187-.105l-.569.249a.916.916 0 0 1 .196-.066l-.59.144c.062-.013.135-.026.197-.026l-.549.04h.28l-.487-.066c.124.013.238.052.352.105l-.403-.17c.165.078.32.17.465.3l-.29-.261c.187.17.342.38.466.628l-.155-.34c.072.17.124.34.155.523l.435-1.19a6.551 6.551 0 0 1-.673.719l.393-.366a5.87 5.87 0 0 1-.89.68l.497-.314c-.279.17-.559.327-.859.458l.559-.236c-.259.105-.507.223-.766.327l.549-.235c-.083.04-.176.078-.259.105-.466.17-1.035.444-1.387.89-.217.26-.414.548-.414.954-.021.13 0 .249.072.353a.649.649 0 0 0 .352.406c.425.235.921.261 1.377.183 1.335-.249 2.681-.837 3.798-1.832.28-.248.57-.51.829-.798.372-.405.869-.902.755-1.595a2.108 2.108 0 0 0-.155-.498c-.124-.274-.249-.549-.435-.771-1.025-1.217-2.556-1.243-3.85-.864-1.294.38-2.609 1.413-2.971 3.087a4.092 4.092 0 0 0-.02 1.505c.031.183.082.353.155.523.114.275.238.55.414.759.993 1.23 2.598 1.138 3.84.759 1.242-.38 2.639-1.36 3.043-2.996.228-.929-.083-1.95-.58-2.643-.818-1.111-2.163-1.465-3.312-1.203-1.014.222-2.07.68-2.805 1.648-.238.314-.466.641-.631 1.034-.145.366-.29.732-.383 1.125-.155.628.424 1.072.838 1.138.311.039.611.104.921.091a6.252 6.252 0 0 0 1.543-.248 5.42 5.42 0 0 0 1.904-.994c.311-.249.745-.668.828-1.165.072-.431-.135-.81-.445-.98-.435-.25-.963-.275-1.439-.197-.569.105-1.159.3-1.645.706l.01-.039ZM145.291 6.096a261.913 261.913 0 0 1 32.676.458c.921.065 2.391-.432 2.888-1.518.517-1.138-.445-1.57-1.191-1.622a259.42 259.42 0 0 0-32.676-.458c-.942.053-2.36.354-2.888 1.518-.486 1.072.414 1.661 1.191 1.622Z"/></g><defs><clipPath id="clip0_719_16371"><path fill="#fff" d="M0 0h181v9H0z"/></clipPath></defs></svg>