<svg xmlns="http://www.w3.org/2000/svg" width="193" height="71" fill="none"><g clip-path="url('#clip0_938_5720')" fill="#F6ECC9"><path d="M11.738 57.982a457.631 457.631 0 0 1 3.665-45.654L3.985 14.601c4.454 10.114 6.597 20.966 9.783 31.534 1.523 5.085 3.299 10.085 5.752 14.801 2.565 4.972 5.103 8.779 11.023 9.347 2.256.227 7.444-1.193 7.98-4.006a442.071 442.071 0 0 0 4.595-28.437c1.212-9.517 2.622-19.148 2.678-28.665 0-4.773-11.108-2.415-11.56 1.449-1.099 9.517-1.493 19.147-2.678 28.664-1.184 9.518-2.734 19.006-4.539 28.438l7.979-4.006c-.733-.056-2.763-3.664-3.299-4.602-1.1-1.96-2.03-4.006-2.904-6.08-1.86-4.46-3.298-9.09-4.595-13.721-2.622-9.347-4.765-18.892-8.768-27.784-1.607-3.551-10.996-1.392-11.419 2.273A472.222 472.222 0 0 0 .63 59.373c-.113 4.602 10.995 2.3 11.108-1.392ZM62.093 23.18c-.874 7.471-1.607 14.943-2.255 22.443-.31 3.75-.592 7.5-.846 11.25-.197 2.87-.987 6.59.113 9.347 1.381 3.494 5.103 4.005 8.43 4.09a60.023 60.023 0 0 0 10.826-.795c7.302-1.222 14.943-3.466 21.146-7.642 1.297-.88 3.186-2.699 1.325-4.063-1.861-1.363-5.075-.71-6.908.143-4.877 2.244-9.557 4.375-14.745 5.198-2.34.37-5.16.881-7.528.54-.817-.113-.902-.113-1.24-1.108-.339-.994-.282-2.187-.226-3.238.705-12.557 1.86-25.086 3.299-37.557.507-4.546-10.94-2.443-11.39 1.449v-.057Z"/><path d="m74.583 50.453 10.714-7.103c1.748-1.164 3.496-2.33 5.272-3.494 1.974-1.335 4.06-2.642 5.836-4.233 1.156-1.051 1.72-2.812-.028-3.608-1.945-.88-4.737-.511-6.597.398-4.173 2.074-8.007 4.801-11.87 7.386l-10.714 7.102c-.845.569-2.03 1.45-2.255 2.529-.198.937.366 1.761 1.212 2.159 2.51 1.136 6.231.34 8.458-1.136h-.028ZM74.47 22.754c4.257-2.245 8.542-4.489 12.8-6.733l6.286-3.296c2.115-1.108 4.37-2.13 6.316-3.522 1.297-.91 3.242-2.728 1.353-4.12s-5.046-.596-6.992.142c-2.678 1.051-5.188 2.529-7.725 3.864l-6.287 3.295c-4.342 2.273-8.684 4.574-12.998 6.847-1.635.852-3.467 3.494-1.015 4.602 2.65 1.194 5.893.17 8.29-1.108l-.029.029ZM117.097 8.38l9.445 35.113 4.652 17.244c1.1 4.091 2.143 8.949 7.133 9.517 2.904.313 8.712-.398 9.614-4.005l9.276-37.358-11.926 2.358 5.752 13.863c1.691 4.091 3.129 8.551 5.638 12.244 2.199 3.267 5.583 5.37 9.473 5.796 5.273.568 9.615-1.506 12.575-5.852 4.736-6.932 5.582-16.563 7.33-24.603l6.541-29.8c.987-4.461-11.024-2.614-11.926 1.505l-6.513 29.801c-1.014 4.688-1.973 9.432-3.129 14.091-.93 3.75-2.058 7.699-4.878 10.483l5.583-2.33c-1.213.114-3.355-2.727-4.032-3.778-1.551-2.386-2.481-5.256-3.581-7.87l-6.935-16.76c-1.664-4.035-11.052-1.194-11.926 2.357l-9.276 37.358 9.614-4.006c-.93-.113-1.551-2.67-1.832-3.721-.733-2.67-1.438-5.341-2.143-8.011l-4.145-15.398-8.458-31.42c-1.128-4.177-13.082-.967-11.926 3.21v-.029Z"/></g><defs><clipPath id="clip0_938_5720"><path fill="#fff" transform="translate(.63 .31)" d="M0 0h192v70H0z"/></clipPath></defs></svg>