<svg xmlns="http://www.w3.org/2000/svg" width="136" height="160" fill="none"><g clip-path="url('#clip0_938_5703')" fill="#F6ECC9"><path d="m35.222 59.654 77.342-43.77c7.309-4.143 14.652-8.253 21.912-12.494 1-.574 1.82-1.769.574-2.539-1.246-.77-3.442-.032-4.606.606C104.467 15.72 78.801 30.588 53.021 45.18L31.026 57.624c-1.05.59-1.885 1.866-.59 2.652s3.605.05 4.818-.638l-.032.016Z"/><path d="M129.659 2.669c-.443 34.24-1.213 68.48-2.327 102.704-.312 9.776-.672 19.552-1.033 29.328-.098 2.587 6.244 1.31 6.326-.786a5241.306 5241.306 0 0 0 2.918-102.688c.18-9.776.327-19.568.459-29.344.032-2.604-6.31-1.294-6.327.786h-.016Z"/><path d="M30.124 59.556C57.035 77.748 81.488 99.2 106.269 120.11c6.949 5.863 13.948 11.692 21.028 17.407 1.131.917 2.95.606 4.196.065.623-.262 2.819-1.621 1.688-2.538-25.469-20.567-49.726-42.64-75.752-62.52-7.277-5.55-14.685-10.922-22.274-16.047-1.704-1.146-7.555 1.36-5.031 3.062v.017Z"/><path d="M129.232 1.736A2667.62 2667.62 0 0 0 74.605 64.19 2692.216 2692.216 0 0 0 59.396 82.3c-.983 1.18.836 1.818 1.72 1.867 1.509.082 3.213-.556 4.18-1.719a2669.071 2669.071 0 0 1 54.069-62.945 3155.845 3155.845 0 0 1 15.767-17.636C136.181.704 134.247.049 133.411 0c-1.557-.082-3.147.59-4.179 1.72v.016Z"/><path d="M121.905 5.911a1887.383 1887.383 0 0 0-31.008 74.032 1954.386 1954.386 0 0 0-8.228 21.222c-.525 1.359 2.032 1.424 2.737 1.359 1.328-.148 3.081-.786 3.606-2.145a1895.562 1895.562 0 0 1 30.124-74.392 1957.94 1957.94 0 0 1 9.112-20.862c.59-1.342-2.098-1.424-2.737-1.359-1.393.164-2.999.803-3.606 2.145Z"/><path d="M81.945 99.674c-4.474 6.632-9.276 13.002-13.963 19.487-.836 1.146.704 1.736 1.622 1.768 1.426.049 3.049-.507 3.966-1.637 5.032-6.223 9.605-12.855 14.079-19.487.803-1.195-.688-1.768-1.655-1.8-1.344-.033-3.245.474-4.049 1.67Z"/><path d="M61.445 84.708c1.491 13.313 2.605 26.74 4.605 40.004.311 2.063 6.179.589 6.015-1.605-1.016-13.378-2.917-26.724-4.425-40.053-.23-2.047-6.458-.672-6.195 1.654Z"/><path d="M76.243 122.092a140.216 140.216 0 0 1 8.604-7.271c2.967-2.309 6.015-4.257 9.113-6.533.917-.688.737-1.736-.295-2.08-1.312-.442-2.934 0-4.081.671-3.393 1.965-6.589 4.422-9.687 6.812a132.541 132.541 0 0 0-8.719 7.369c-.344.311-.77.852-.623 1.359.148.508.77.77 1.23.868 1.425.311 3.376-.196 4.474-1.195h-.016Z"/><path d="M81.93 112.611c1.95-1.867 3.918-3.717 5.868-5.6.311-.312.705-.77.574-1.261-.132-.492-.705-.721-1.131-.803a4.667 4.667 0 0 0-2.18.131c-.688.213-1.426.475-1.95.983-1.984 1.85-3.95 3.717-5.917 5.584-.328.311-.721.786-.59 1.277.131.491.721.737 1.147.819a4.82 4.82 0 0 0 2.213-.131c.705-.213 1.442-.492 1.967-.999Z"/><path d="m74.508 115.673-.59.295-.098.049 3.507 1.686c3.278-3.569 6.687-7.008 10.162-10.398.31-.311.704-.769.573-1.261-.131-.491-.705-.72-1.13-.802-1.328-.246-3.131.147-4.147 1.113-3.524 3.325-6.9 6.812-10.162 10.399-.262.294-.754.786-.573 1.26.147.393.475.59.868.721 1.279.409 2.754 0 3.884-.639.443-.245.885-.458 1.312-.687.803-.426 1.72-1.72.508-2.277-1.328-.589-2.918-.065-4.13.541h.016Z"/><path d="M85.29 110.416c1.278-2.047 2.557-4.093 3.786-6.173.23-.409.328-.835 0-1.228s-1.114-.524-1.606-.524c-.787 0-1.606.131-2.327.458-.59.262-1.23.606-1.59 1.163-1.328 2.03-2.59 4.11-3.868 6.173-.246.41-.328.852 0 1.245.328.393 1.13.524 1.623.524.803 0 1.638-.131 2.36-.475.59-.262 1.262-.606 1.622-1.179v.016Z"/><path d="M84.423 106.536c.885 1.08 1.77 2.161 2.688 3.225.18.181.41.312.672.361.295.114.606.163.934.163.393 0 .77-.032 1.147-.114.41-.066.803-.18 1.18-.344l.672-.344a2.93 2.93 0 0 0 .918-.819l.197-.425a.826.826 0 0 0-.213-.786c-.853-1.098-1.738-2.178-2.606-3.243a1.237 1.237 0 0 0-.672-.36 2.63 2.63 0 0 0-.95-.164c-.394 0-.787.033-1.165.115-.41.065-.802.18-1.196.344l-.672.344c-.36.213-.672.491-.934.818l-.213.443c-.066.311 0 .573.213.802v-.016ZM8.195 82.284.591 89.882c-.312.311-.705.753-.574 1.245.131.458.705.72 1.115.786a4.545 4.545 0 0 0 2.147-.131c.688-.213 1.426-.459 1.917-.966l7.621-7.598c.312-.312.705-.754.574-1.245-.131-.458-.705-.72-1.114-.786a4.545 4.545 0 0 0-2.148.131c-.688.213-1.425.459-1.917.966h-.017ZM32.353 95.695l-13.866 13.87c-.311.311-.704.753-.573 1.261.13.458.704.72 1.13.802 1.295.246 3.147-.131 4.114-1.097l13.882-13.87c.312-.31.705-.769.574-1.26-.131-.475-.705-.72-1.131-.803-1.295-.245-3.163.131-4.13 1.114v-.017ZM81.128 130.59c-4.326 4.766-8.653 9.547-12.964 14.312-.311.328-.72.753-.573 1.261.13.475.72.721 1.13.802 1.246.23 3.23-.114 4.147-1.113 4.343-4.765 8.67-9.547 12.997-14.312.311-.344.721-.753.59-1.277-.131-.475-.721-.737-1.147-.819-1.262-.229-3.262.115-4.18 1.114v.032ZM122.725 145.328c-4.327 4.176-8.638 8.351-12.964 12.527-.312.311-.721.77-.59 1.261.131.491.721.737 1.147.802 1.327.246 3.147-.147 4.163-1.113 4.343-4.176 8.67-8.352 12.997-12.527.327-.311.721-.786.59-1.277-.131-.492-.721-.737-1.148-.819-1.343-.246-3.179.147-4.195 1.13v.016Z"/></g><defs><clipPath id="clip0_938_5703"><path fill="#fff" d="M0 0h136v160H0z"/></clipPath></defs></svg>