<svg xmlns="http://www.w3.org/2000/svg" width="105" height="73" fill="none"><g clip-path="url('#clip0_938_5697')" fill="#F6ECC9"><path d="M1.472 10.444c-.461 19.395-7.487 47.55 14.54 58.849 9.14 4.683 20.723 3.466 28.78-2.753 7.568-5.847 10.768-15.426 12.26-24.396 2.197-13.337 1.438-27.096-1.98-40.168-1.004-3.837-12.45-.9-11.338 2.964 3.58 12.569 4.448 25.64 2.36 38.553-.814 5.001-2.008 10.108-4.476 14.606-1.79 3.255-4.666 7.489-8.762 8.045-4.638.635-9.71-2.276-12.939-5.24-4.123-3.81-6.51-8.89-7.84-14.21-3.091-12.33-.162-25.058.136-37.52C12.322 4.886 1.607 7.03 1.5 10.495h-.027v-.053ZM93.536 5.945a913.967 913.967 0 0 0-3.364 63.903c-.081 4.208 10.417 2.09 10.471-1.27a914.456 914.456 0 0 1 3.363-63.903c.353-4.101-10.172-2.17-10.47 1.27Z"/></g><defs><clipPath id="clip0_938_5697"><path fill="#fff" transform="translate(.033 .177)" d="M0 0h104v72H0z"/></clipPath></defs></svg>