<svg xmlns="http://www.w3.org/2000/svg" width="141" height="81" fill="none"><g clip-path="url('#clip0_938_5693')" fill="#F6ECC9"><path d="M1.775 12.75C-.393 34.385-1.822 61.206 18.921 74.981c9.164 6.085 21.53 6.742 31.31 1.582 9.78-5.16 12.688-16.598 14.043-27.064 1.847-14.19 1.995-29.839-1.65-43.76-.912-3.505-10.766-.925-10.249 2.701 1.601 11.293 3.08 22.245 2.365 33.709-.32 5.208-.936 10.417-1.946 15.552-.838 4.332-2.045 8.762-4.78 12.34-5.32 6.912-15.15 4.088-21.235-.293-6.897-4.965-11.48-12.655-13.82-20.663-3.547-12.218-2.29-25.117-1.084-37.602.394-3.992-9.78-2.118-10.1 1.265ZM96.028 64.541a777.17 777.17 0 0 0 21.161-30.812c3.4-5.233 6.726-10.49 9.977-15.796 3.252-5.306 6.75-10.246 9.14-15.747.837-1.874-2.759-2.19-3.695-2.141-2.119.121-4.681.9-5.987 2.677-3.67 5.013-6.528 10.733-9.804 16.014a930.642 930.642 0 0 1-9.682 15.285 770.511 770.511 0 0 1-20.84 30.325c-1.454 1.996 1.23 2.97 2.832 3.018 2.34.098 5.47-.852 6.898-2.823Z"/><path d="M86.346 15.742c7.932 9.468 15.593 19.106 22.959 28.987 3.572 4.795 7.095 9.614 10.519 14.506 3.646 5.184 6.972 10.684 10.938 15.65 1.848 2.312 11.184-.439 9.657-3.262-2.833-5.257-6.504-10.125-9.928-15.04a634.769 634.769 0 0 0-11.159-15.431 670.4 670.4 0 0 0-23.305-29.45c-2.291-2.726-12.293.9-9.681 4.04Z"/></g><defs><clipPath id="clip0_938_5693"><path fill="#fff" transform="translate(.592 .044)" d="M0 0h140v80H0z"/></clipPath></defs></svg>