<svg width="151" height="56" viewBox="0 0 151 56" fill="none" xmlns="http://www.w3.org/2000/svg">
  <g clip-path="url(#clip0_819_1389)">
    <path
      d="M0.0464784 29.8635C3.05445 21.8585 6.46348 13.7597 13.8124 8.74339C20.3827 4.2662 28.5927 2.82459 36.4252 3.44577C44.9537 4.12556 53.1047 7.65339 60.0289 12.5525C63.5913 15.0724 66.8824 17.9322 69.9375 21.0381C71.4474 22.5852 72.9101 24.1909 74.3138 25.8317C75.7175 27.4726 77.1448 29.1369 77.8998 31.1762C78.5368 32.9225 78.4542 34.9619 77.3926 36.5207C76.2719 38.1733 74.2312 38.689 72.3203 38.56C68.003 38.267 63.8036 35.3955 60.7721 32.4772C54.8977 26.8397 50.7573 17.2758 54.7797 9.47005C58.8021 1.66428 68.5574 -0.621197 76.8146 0.128906C85.0717 0.879013 94.1664 4.03179 101.928 7.7706C116.661 14.8614 129.554 25.7379 138.649 39.2984C139.781 40.9744 140.831 42.6973 141.822 44.4554C142.966 46.4713 138.036 45.9439 137.222 44.5609C130.014 32.2545 120.047 21.7765 107.885 14.1934C101.881 10.4546 95.4168 7.40726 88.6577 5.30931C81.3678 3.03556 73.0281 1.1603 65.8915 4.88738C62.683 6.5634 60.0171 9.29425 58.8847 12.7635C57.7523 16.2327 58.118 20.3114 59.4627 23.8392C60.8074 27.3671 63.0605 30.3675 65.8679 32.7467C67.0711 33.7664 68.404 34.6923 69.8313 35.3838C70.4919 35.7003 71.0935 36.0167 71.7895 35.6651C72.6152 35.2549 73.0516 34.3407 73.2522 33.4851C74.0661 29.9456 70.4211 26.6873 68.2743 24.3081C65.691 21.4483 62.9189 18.7526 59.9345 16.303C54.4612 11.8141 48.0442 8.08704 41.0138 6.6806C33.6414 5.20383 25.6319 6.30555 19.1677 10.1733C11.4296 14.7911 7.93797 23.1126 4.88282 31.1293C4.24584 32.7936 -0.519727 31.3989 0.0582744 29.8401H0.0464784V29.8635Z"
      fill="#EB7A53"/>
    <path
      d="M125.497 37.7513L137.104 46.1783L142.696 50.2336C144.253 51.3587 145.904 52.9527 147.839 53.3512L145.196 53.6207C146.352 51.8861 146.022 49.46 145.892 47.5027C145.739 45.2875 145.491 43.0724 145.255 40.8572C144.784 36.4152 144.194 31.7271 144.996 27.285C145.303 25.609 149.915 26.8397 149.82 28.5743C149.549 33.45 149.891 38.1733 150.41 43.0138C150.658 45.393 150.918 47.7723 150.988 50.175C151.047 52.1323 150.941 53.8903 149.832 55.5663C149.36 56.2696 147.827 55.9648 147.19 55.8359C144.795 55.3436 142.814 54.031 140.867 52.6128C138.72 51.054 136.574 49.4952 134.415 47.9364L121.522 38.5718C120.637 37.9271 121.086 37.0481 121.994 36.8254C123.209 36.5324 124.542 37.0598 125.509 37.7631L125.497 37.7513Z"
      fill="#EB7A53"/>
  </g>
  <defs>
    <clipPath id="clip0_819_1389">
      <rect width="151" height="56" fill="white" transform="matrix(1 0 0 -1 0 56)"/>
    </clipPath>
  </defs>
</svg>
