<svg width="352" height="24" viewBox="0 0 352 24" fill="none" xmlns="http://www.w3.org/2000/svg">
  <path
    d="M76.6171 4.87861C110.052 4.17527 143.504 3.72313 176.957 3.52218C210.409 3.32122 243.553 3.38821 276.841 3.70638C295.752 3.89059 314.68 4.14178 333.591 4.4767L336.157 1.04375C292.985 1.73034 249.832 2.58439 206.678 3.60591C163.525 4.62742 120.371 5.81639 77.2177 7.18957C52.9928 7.95989 28.7861 8.76371 4.56111 9.6345C3.14147 9.68474 1.012 10.0197 0.21118 11.2924C-0.535042 12.4813 0.8482 13.1009 1.99483 13.0675C46.9684 12.0124 91.9784 11.912 136.97 12.7828C181.962 13.6536 226.917 15.5124 271.818 18.3257C297.044 19.8999 322.252 21.7922 347.423 23.9859C348.788 24.1031 351.045 23.4835 351.773 22.328C352.574 21.0721 351.081 20.6367 349.989 20.553C305.198 16.6511 260.297 13.7038 215.36 11.7278C170.423 9.75173 125.413 8.7637 80.421 8.74696C55.1405 8.74696 29.8599 9.03164 4.57931 9.6345L2.01304 13.0675C45.1484 11.5101 88.3019 10.1369 131.455 8.91442C174.609 7.7087 217.762 6.6537 260.916 5.7829C285.141 5.29726 309.384 4.84512 333.609 4.45996C335.029 4.44321 337.176 4.05805 337.959 2.80209C338.741 1.54614 337.304 1.04375 336.175 1.02701C302.704 0.457639 269.27 0.105971 235.817 0.0222407C202.365 -0.0614898 169.222 0.0892251 135.933 0.507878C117.022 0.742323 98.0938 1.0605 79.1834 1.46241C77.7637 1.4959 75.6161 1.86431 74.8335 3.12027C74.0872 4.30924 75.4705 4.92885 76.6171 4.89536V4.87861Z"
    fill="#EB7A53"/>
</svg>
