<svg width="156" height="189" viewBox="0 0 156 189" fill="none" xmlns="http://www.w3.org/2000/svg">
  <g clip-path="url(#clip0_849_1671)">
    <path d="M82.8676 50.4127C82.8676 33.1805 79.729 11.9615 62.5114 3.16818C44.0608 -6.26743 22.5837 7.04431 11.8451 21.8622C-12.8828 55.95 7.09231 100.758 30.9683 129.397C45.6525 147.006 64.8205 161.868 72.3981 184.194C73.4069 187.185 82.0381 184.748 81.0517 181.891C74.8641 163.706 61.0542 150.018 48.1634 136.263C35.2727 122.509 24.3323 107.802 17.0238 90.6579C9.7153 73.5144 6.39733 55.0419 12.0693 37.4332C14.894 28.7285 19.9158 20.644 26.6863 14.3979C32.5152 9.03775 40.3169 4.0763 48.6342 5.09517C58.5209 6.29123 65.8966 14.6194 69.5061 23.2576C73.1155 31.8958 74.214 41.9738 74.214 51.4758C74.214 55.0197 82.8676 53.2035 82.8676 50.4127Z" fill="#F6ECC9"/>
    <path d="M83.1353 50.8104C92.2149 34.9958 106.989 22.3485 123.937 15.3272C132.12 11.9384 140.931 9.90062 149.831 9.94492C152.05 9.94492 154.292 10.0778 156.489 10.3436C158.35 10.5872 161.623 10.6315 163.26 11.6061C164.896 12.5807 166.578 15.1057 167.699 16.7226C169.066 18.6717 170.098 20.7981 170.793 23.0573C173.416 31.5848 170.479 40.5552 166.309 48.1081C161.758 56.3255 155.705 63.6569 149.54 70.7226C142.164 79.1614 134.34 87.2238 127.076 95.7734C119.812 104.323 112.414 113.604 105.532 122.862C90.4662 143.129 76.9477 164.458 64.9761 186.63C63.0481 190.196 71.7017 189.288 73.0469 186.807C84.3011 165.942 96.9452 145.809 110.957 126.627C118.243 116.66 125.888 106.937 133.846 97.5011C141.805 88.0655 149.988 79.6709 157.879 70.6118C164.47 63.0368 170.994 55.1295 175.523 46.1369C179.558 38.141 182.249 28.8604 179.244 20.0671C177.765 15.7923 174.649 10.3658 170.748 7.81859C168.977 6.64467 166.309 6.40103 164.224 6.04664C161.646 5.60366 159.045 5.31572 156.445 5.18282C146.289 4.60694 136.066 6.35673 126.493 9.59053C105.42 16.7005 86.1618 31.3854 75.1094 50.6332C73.1141 54.1106 81.7678 53.2689 83.1801 50.8104H83.1353Z" fill="#F6ECC9"/>
  </g>
  <defs>
    <clipPath id="clip0_849_1671">
      <rect width="180" height="189" fill="white" transform="translate(0.5)"/>
    </clipPath>
  </defs>
</svg>
