<svg width="181" height="9" viewBox="0 0 181 9" fill="none" xmlns="http://www.w3.org/2000/svg">
  <g clip-path="url(#clip0_719_16371)">
    <path d="M-7.04691 6.05671C-7.04691 6.05671 -6.9641 6.17444 -6.93305 6.23985L-7.0883 5.89974C-7.03655 6.01747 -7.01586 6.12212 -7.01586 6.25293V5.86049C-7.01586 5.9913 -7.0469 6.10904 -7.0883 6.22677L-6.93305 5.82125C-6.9848 5.95206 -7.0469 6.05671 -7.11935 6.16136L-6.83989 5.76892C-6.83989 5.76892 -6.93304 5.87357 -6.98479 5.9259C-6.64323 5.62503 -6.55009 5.54654 -6.70534 5.66427C-6.8813 5.79508 -6.75709 5.7166 -6.34307 5.4288C-6.53973 5.53346 -6.39482 5.46805 -5.90836 5.24567C-5.39084 5.12793 -5.23558 5.08869 -5.45293 5.12793C-5.16312 5.07561 -4.87331 5.08869 -4.59385 5.1541C-4.6249 5.1541 -4.65596 5.14101 -4.68702 5.12793L-4.28335 5.29799C-4.34545 5.27183 -4.39719 5.24567 -4.44894 5.19334L-4.15913 5.45497C-4.27299 5.35032 -4.36615 5.23258 -4.42826 5.07561L-4.27299 5.41572C-4.35579 5.2195 -4.38684 5.02328 -4.39719 4.8009V5.19334C-4.39719 4.91863 -4.34545 4.657 -4.26264 4.40846L-4.41789 4.81398C-4.35579 4.64392 -4.27299 4.50003 -4.17984 4.35613L-4.4593 4.74857C-4.4593 4.74857 -4.38685 4.657 -4.34545 4.60468C-4.19019 4.40846 -4.63526 4.8663 -4.61455 4.85322C-4.3765 4.657 -5.18382 5.18026 -4.91471 5.04944L-5.37013 5.24567C-5.22522 5.19334 -5.27698 5.20642 -5.53574 5.28491C-5.7738 5.33723 -5.84625 5.35032 -5.7324 5.33723C-5.55644 5.31107 -5.69099 5.31107 -6.11536 5.3634C-6.03256 5.3634 -5.79451 5.38956 -6.15677 5.33723C-6.55009 5.28491 -6.09466 5.37648 -6.00151 5.41572L-6.40517 5.24567C-6.17746 5.35032 -5.97046 5.48113 -5.78416 5.65119L-6.07397 5.38956C-5.80486 5.63811 -5.56679 5.93898 -5.39084 6.29218L-5.54608 5.95206C-5.46328 6.1352 -5.41154 6.30526 -5.41154 6.51456V6.12212C-5.41154 6.25293 -5.43224 6.35758 -5.47364 6.47532L-5.31839 6.06979C-5.34944 6.14828 -5.38048 6.20061 -5.42189 6.26601L-5.14242 5.87357C-5.14242 5.87357 -5.21488 5.96514 -5.24593 6.00439C-4.94577 5.61194 -4.83191 5.63811 -5.01822 5.79508C-5.24593 5.97822 -4.49035 5.48113 -4.69736 5.58578C-4.99752 5.74276 -4.2937 5.41572 -4.3144 5.4288C-4.3765 5.44189 -4.42825 5.46805 -4.49036 5.49421C-4.79052 5.59886 -3.81757 5.35032 -4.13843 5.40264C-4.25228 5.41572 -4.69735 5.46805 -4.22123 5.4288C-3.74512 5.38956 -4.17984 5.4288 -4.29369 5.41572C-4.40755 5.40264 -4.52141 5.40264 -4.63526 5.38956C-4.84227 5.3634 -4.10738 5.48113 -4.36614 5.4288C-4.42824 5.4288 -4.49035 5.40264 -4.55245 5.38956C-4.67666 5.3634 -4.79051 5.32415 -4.90436 5.27183L-4.5007 5.44189C-4.64561 5.37648 -4.79051 5.29799 -4.92507 5.19334L-4.63526 5.45497C-4.78017 5.32415 -4.89402 5.18026 -4.98717 4.99712L-4.83192 5.33723C-4.92507 5.12793 -4.97682 4.91863 -4.98717 4.68316V5.07561C-4.98717 4.84014 -4.93542 4.61776 -4.86297 4.40846L-5.01822 4.81398C-4.94577 4.64392 -4.86296 4.50003 -4.7698 4.35613L-5.04927 4.74857C-4.98717 4.67008 -4.92507 4.60468 -4.86297 4.52619C-5.19418 4.93171 -5.22523 4.85322 -5.04927 4.70933C-5.45294 4.95787 -5.55644 5.02328 -5.37013 4.91863C-5.23557 4.85322 -5.28733 4.87939 -5.53574 4.98404C-5.78415 5.08869 -5.83591 5.11485 -5.70135 5.06253C-6.15677 5.16718 -6.27062 5.19334 -6.04292 5.1541C-5.691 5.10177 -6.59148 5.1541 -6.26027 5.18026C-6.20851 5.18026 -6.14642 5.18026 -6.09467 5.18026C-6.44658 5.12793 -6.52938 5.11485 -6.33273 5.1541C-6.13607 5.20642 -5.94976 5.25875 -5.75311 5.33723L-6.15677 5.16718C-5.70135 5.35032 -5.24593 5.5727 -4.84227 5.9259L-5.13207 5.66427C-4.86296 5.91282 -4.61456 6.18753 -4.4386 6.5538L-4.59385 6.21369C-4.51105 6.40991 -4.45929 6.60613 -4.44894 6.82851V6.43607C-4.44894 6.57997 -4.48 6.71078 -4.5214 6.8416L-4.36614 6.43607C-4.40754 6.52764 -4.44895 6.60613 -4.5007 6.68462L-4.22123 6.29218C-4.22123 6.29218 -4.29369 6.35758 -4.30404 6.39683L-4.00388 6.10904L-3.61056 5.86049C-3.87967 6.01747 -2.98954 5.62503 -3.23795 5.70351C-3.48636 5.782 -2.58588 5.54654 -2.82394 5.59886C-3.1655 5.66427 -2.23395 5.59886 -2.58587 5.5727C-2.62727 5.5727 -2.66868 5.5727 -2.71008 5.5727C-2.73078 5.5727 -2.75148 5.5727 -2.77218 5.5727C-2.92744 5.55962 -2.81358 5.5727 -2.44096 5.61194C-2.81358 5.53346 -3.1862 5.45497 -3.54846 5.31107L-3.1448 5.48113C-3.37251 5.37648 -3.58987 5.25875 -3.79688 5.08869L-3.50707 5.35032C-3.66233 5.20642 -3.79687 5.03636 -3.90037 4.82706L-3.74512 5.16718C-3.82793 4.97096 -3.86932 4.76165 -3.86932 4.53927V4.93171C-3.86932 4.70933 -3.82793 4.50003 -3.74512 4.29072L-3.90037 4.69625C-3.85897 4.60468 -3.81758 4.51311 -3.76583 4.43462L-4.04528 4.82706C-4.04528 4.82706 -3.98317 4.76165 -3.96247 4.72241C-4.05563 4.85322 -4.51105 5.18026 -4.67665 5.27183C-4.59385 5.23258 -5.37014 5.55962 -5.12173 5.46805C-5.35979 5.55962 -5.59785 5.59886 -5.83591 5.61194C-6.07397 5.61194 -6.12571 5.61194 -6.00151 5.63811C-5.53574 5.67735 -5.04927 5.52037 -4.61455 5.33723C-4.22124 5.16718 -3.77617 4.93171 -3.476 4.55235C-3.30005 4.32997 -3.1241 4.08142 -3.05165 3.76747C-2.9585 3.36194 -3.2069 2.94334 -3.48636 2.79944C-4.40755 2.32851 -5.47364 2.49857 -6.37412 2.98258C-6.96409 3.29654 -7.54373 3.75439 -7.90599 4.42154C-8.23721 5.03636 -8.41315 5.96514 -8.13369 6.65846C-7.71967 7.66572 -6.93304 8.09741 -6.11536 8.3852C-5.29768 8.67299 -4.42825 8.76456 -3.57951 8.69915C-2.99989 8.64683 -2.42027 8.43752 -1.88205 8.16282C-1.28172 7.84886 -0.619305 7.32561 -0.288092 6.57997C-0.0810833 6.12212 0.0224228 5.62503 -0.0914316 5.10177C-0.174234 4.69625 -0.401932 4.29072 -0.629641 3.97677C-1.11611 3.33578 -1.75784 2.93026 -2.40991 2.62939C-2.83428 2.43316 -3.26901 2.25003 -3.71407 2.15846C-4.54211 2.00148 -5.35978 2.0538 -6.17746 2.28927C-7.2332 2.60322 -8.37175 3.34886 -8.99277 4.51311C-9.17908 4.8663 -9.33434 5.29799 -9.36539 5.7166C-9.39644 6.31834 -9.30328 6.75003 -9.02382 7.24712C-8.62016 7.9666 -7.82318 8.30671 -7.17111 8.45061C-6.38448 8.62066 -5.52539 8.67299 -4.72841 8.51601C-3.65197 8.29363 -2.46167 7.87503 -1.65434 6.88084C-1.36453 6.52764 -1.06436 6.06979 -1.02296 5.53346C-0.97121 4.90555 -1.13683 4.4477 -1.43699 3.95061C-2.79289 1.72677 -5.67029 1.88375 -7.37811 3.30962C-8.06124 3.87212 -8.74437 4.77473 -8.78577 5.87357C-8.80647 6.47532 -8.74437 6.8416 -8.48561 7.33869C-8.22685 7.83578 -7.76108 8.07125 -7.33672 8.20206C-6.46728 8.45061 -5.49435 8.20206 -4.68702 7.78346C-4.05564 7.45642 -3.52777 6.98549 -3.0827 6.33142C-2.63763 5.67735 -2.47202 4.63084 -3.01024 3.95061C-3.3104 3.58433 -3.79687 3.47968 -4.19018 3.4666C-4.74911 3.44043 -5.40119 3.61049 -5.90836 3.89828C-6.33272 4.13375 -6.8399 4.46078 -7.07796 4.98404C-7.24356 5.35032 -7.34707 5.782 -7.07796 6.12212L-7.04691 6.05671Z" fill="#D5B8F0"/>
    <path d="M12.0604 4.84011C23.8288 5.16715 35.5765 5.96511 47.3035 7.11628C48.204 7.20785 49.6634 6.68459 50.1395 5.63808C50.657 4.51308 49.6945 4.12064 48.9699 4.04215C37.2533 2.77325 25.5056 2.0407 13.7579 1.70058C12.8263 1.67442 11.3773 2.1061 10.8701 3.21802C10.3629 4.32994 11.3048 4.82703 12.0604 4.84011Z" fill="#D5B8F0"/>
    <path d="M61.659 3.64965C61.5866 3.89819 61.5038 4.13366 61.4106 4.36912L61.5659 3.9636C61.4106 4.35604 61.245 4.74849 61.0173 5.07552L61.2968 4.68308C61.2036 4.81389 61.1001 4.93162 60.9966 5.03628L61.3899 4.67C61.3899 4.67 61.2968 4.74849 61.245 4.78773C61.0691 4.91854 61.1829 4.84005 61.5762 4.57843C61.4417 4.64383 61.5038 4.63075 61.7522 4.51302C62.011 4.39529 62.2697 4.3168 62.6423 4.29064C63.0874 4.26447 62.8183 4.29064 62.7044 4.26447L63.1909 4.32988C63.0977 4.3168 63.0149 4.29064 62.9321 4.26447L63.3255 4.42145C63.1909 4.36912 63.0667 4.29064 62.9528 4.18599L63.2427 4.43453C63.1081 4.30372 62.9942 4.15982 62.9114 3.97668L63.0667 4.3168C63.0046 4.1729 62.9735 4.02901 62.9632 3.87203V4.26447C62.9632 4.12058 62.9942 3.98976 63.0356 3.85895L62.8907 4.26447C62.9218 4.18599 62.9632 4.12058 63.0046 4.05517L62.7251 4.44761C62.7872 4.36912 62.8493 4.29064 62.9218 4.22523L62.5285 4.59151C62.6009 4.5261 62.6837 4.47378 62.7562 4.40837C62.7769 4.39529 62.2076 4.7354 62.4457 4.60459C62.4871 4.57843 62.5285 4.55226 62.5699 4.53918C62.6113 4.5261 62.6527 4.49994 62.6941 4.47378C62.9528 4.34296 62.2801 4.64383 62.3215 4.63075C62.425 4.60459 62.5181 4.56535 62.6216 4.5261C62.8493 4.44761 62.0006 4.67 62.2387 4.61767C62.2801 4.61767 62.3318 4.60459 62.3732 4.59151C62.4767 4.57843 62.839 4.53918 62.4043 4.57843C61.9696 4.61767 62.3318 4.57843 62.4353 4.57843C62.5388 4.57843 62.6423 4.57843 62.7458 4.60459L62.2594 4.53918C62.5285 4.57843 62.7976 4.64383 63.0564 4.74849L62.6527 4.59151C62.9114 4.69616 63.1599 4.84005 63.3979 5.01011L62.9528 4.02901C62.87 4.3168 62.7872 4.60459 62.6837 4.8793L62.839 4.47378C62.6837 4.8793 62.5078 5.24558 62.2697 5.58569L62.5492 5.19325C62.4146 5.37639 62.2801 5.54645 62.1248 5.69035L62.5181 5.32407C62.4664 5.37639 62.4146 5.41564 62.3525 5.45488C62.1455 5.62494 62.7355 5.21942 62.6941 5.24558C62.6423 5.27174 62.5906 5.2979 62.5388 5.32407C62.5078 5.33715 63.2323 5.03628 62.9218 5.15401C62.7355 5.21942 62.5181 5.15401 63.3151 5.06244C63.2737 5.06244 63.222 5.07552 63.1806 5.0886C62.9528 5.12785 63.8119 5.0886 63.5325 5.06244C63.4807 5.06244 63.4186 5.06244 63.3669 5.06244L63.8533 5.12785C63.7291 5.11476 63.6049 5.07552 63.4807 5.03628L63.8844 5.20633C63.7498 5.14093 63.6256 5.07552 63.5014 4.97087L63.7912 5.2325C63.6463 5.10168 63.5221 4.94471 63.429 4.74849L63.5842 5.0886C63.4807 4.85314 63.429 4.59151 63.429 4.3168V4.70924C63.429 4.43453 63.4911 4.1729 63.5842 3.92436L63.429 4.32988C63.5014 4.15982 63.5842 4.00285 63.6774 3.85895L63.3979 4.25139C63.46 4.1729 63.5118 4.1075 63.5842 4.04209L63.1909 4.40837C63.1909 4.40837 63.2737 4.34296 63.3151 4.30372C62.8907 4.56535 62.7665 4.64383 62.9528 4.53918C63.077 4.47378 63.0149 4.49994 62.7562 4.61767C62.4974 4.72232 62.4353 4.74849 62.5595 4.70924C62.0524 4.81389 61.8971 4.85314 62.0938 4.82697C62.2697 4.80081 62.1248 4.81389 61.6694 4.85314C61.7004 4.85314 61.7418 4.85314 61.7729 4.85314L61.2864 4.78773C61.3692 4.80081 61.452 4.82697 61.5348 4.85314L61.1312 4.68308C61.245 4.7354 61.3485 4.80081 61.4417 4.89238L61.1519 4.63075C61.3382 4.80081 61.4831 5.01011 61.5969 5.25866L61.4417 4.91854C61.5555 5.19325 61.628 5.48104 61.628 5.78192V5.38947C61.628 5.61186 61.5866 5.84732 61.5555 6.05662C61.4106 7.11622 62.5595 7.26011 63.1288 7.22087C64.0707 7.15546 65.054 6.71069 65.6646 5.76883C66.0269 5.21942 66.1097 4.42145 65.9338 3.7543C65.7578 3.08715 65.3748 2.55081 64.8884 2.17145C64.64 1.97523 64.3501 1.8575 64.0707 1.79209C63.3876 1.62203 62.7044 1.7136 62.0317 1.90982C61.0794 2.18453 60.21 2.82552 59.589 3.76738C58.9679 4.70924 58.823 6.27901 59.589 7.19471C60.0237 7.71796 60.624 8.03192 61.2036 8.12349C62.2801 8.29354 63.3358 8.09732 64.3398 7.58715C65.1989 7.14238 65.9545 6.40982 66.5134 5.46796C66.886 4.84005 67.1344 4.09442 67.3311 3.36186C67.4449 2.91709 67.1448 2.56389 66.886 2.38075C65.9855 1.72668 64.8677 1.45197 63.8326 1.5043C63.1081 1.54354 62.3939 1.64819 61.6901 1.93599C60.8621 2.2761 60.034 2.69471 59.3716 3.42726C58.8955 3.95052 58.5436 4.67 58.6471 5.49412C58.6988 5.92581 58.9576 6.34442 59.237 6.61912C60.6033 7.92726 62.6423 7.50866 64.0086 6.4229C64.5572 5.99122 65.0436 5.41564 65.3852 4.7354C65.6543 4.18599 65.8613 3.58424 66.0476 2.9825C66.1822 2.56389 65.851 2.15837 65.6025 1.98831C65.1989 1.72668 64.5882 1.7136 64.1638 1.79209C63.2219 1.96215 62.0627 2.45924 61.6797 3.67581L61.659 3.64965Z" fill="#D5B8F0"/>
    <path d="M80.7873 6.33145H96.1059C101.209 6.33145 106.384 6.64541 111.476 6.25297C112.222 6.20064 113.546 5.61198 113.826 4.61779C114.105 3.6236 113.257 3.28349 112.594 3.23116C107.626 2.82564 102.534 3.19192 97.555 3.19192H82.4951C81.5636 3.19192 80.1146 3.57128 79.6074 4.69628C79.1002 5.82128 80.0318 6.31837 80.7977 6.31837L80.7873 6.33145Z" fill="#D5B8F0"/>
    <path d="M127.375 3.40118C127.302 3.46658 127.22 3.51891 127.137 3.58432L127.623 3.27036C127.509 3.34885 127.385 3.40118 127.261 3.46658L127.83 3.21804C127.727 3.25728 127.613 3.29653 127.509 3.32269L128.099 3.17879C127.986 3.20496 127.882 3.21804 127.768 3.23112L128.317 3.19187C128.182 3.19187 128.058 3.19187 127.923 3.19187L128.41 3.25728H128.358L129.197 4.38228C129.248 4.19914 129.3 4.00292 129.362 3.83286L129.217 4.23839C129.321 3.96368 129.445 3.70205 129.611 3.46658L129.331 3.85903C129.424 3.72821 129.528 3.61048 129.631 3.51891L129.238 3.88519C129.3 3.83286 129.362 3.78054 129.424 3.74129L128.938 4.05525C129 4.016 129.052 3.98984 129.114 3.96368L128.545 4.21222C128.545 4.21222 128.638 4.17298 128.689 4.1599L128.099 4.30379C128.162 4.29071 128.224 4.27763 128.286 4.27763L127.737 4.31687C127.81 4.31687 127.882 4.31687 127.955 4.31687L127.468 4.25147C127.582 4.26455 127.685 4.29071 127.789 4.34304L127.396 4.18606C127.582 4.26455 127.748 4.3692 127.903 4.5131L127.613 4.26455C127.851 4.48693 128.058 4.74856 128.213 5.0756L128.058 4.73548C128.193 5.03635 128.275 5.36339 128.286 5.71658V5.32414C128.286 5.55961 128.244 5.79507 128.172 6.01746L128.317 5.61193C128.255 5.78199 128.172 5.93897 128.068 6.06978L128.348 5.67734C128.275 5.78199 128.193 5.86048 128.11 5.93897L128.503 5.57269C128.431 5.6381 128.348 5.7035 128.265 5.75583L128.751 5.44187C128.679 5.48112 128.607 5.52036 128.524 5.55961L129.093 5.31106C129.021 5.33722 128.938 5.36339 128.855 5.38955L129.445 5.24565C129.362 5.25874 129.29 5.27182 129.207 5.2849L129.755 5.24565C129.652 5.24565 129.538 5.24565 129.435 5.24565L129.921 5.31106C129.818 5.29798 129.714 5.27182 129.611 5.21949L130.014 5.38955C129.869 5.32414 129.745 5.24565 129.621 5.141L129.911 5.40263C129.745 5.24565 129.611 5.06251 129.507 4.84013L129.662 5.18025C129.517 4.85321 129.445 4.48693 129.445 4.10757V4.50001C129.445 4.17298 129.497 3.85903 129.611 3.55815L129.455 3.96368C129.528 3.78054 129.611 3.61048 129.714 3.4535L129.435 3.84594C129.497 3.75437 129.569 3.67589 129.642 3.61048L129.248 3.97676C129.3 3.92443 129.362 3.88519 129.424 3.84594L128.927 4.1599C128.99 4.12065 129.052 4.09449 129.114 4.05525L128.545 4.30379C128.607 4.27763 128.669 4.25147 128.741 4.23839L128.151 4.38228C128.213 4.3692 128.286 4.35612 128.348 4.35612L127.799 4.39536C127.892 4.39536 127.986 4.39536 128.079 4.39536L127.592 4.32996C127.716 4.34304 127.83 4.38228 127.944 4.43461L127.541 4.26455C127.706 4.34304 127.861 4.43461 128.006 4.56542L127.716 4.30379C127.903 4.47385 128.058 4.68315 128.182 4.9317L128.027 4.59158C128.099 4.76164 128.151 4.9317 128.182 5.11484L128.617 3.92443C128.41 4.18606 128.182 4.42153 127.944 4.64391L128.337 4.27763C128.058 4.53926 127.758 4.76164 127.447 4.95786L127.944 4.64391C127.665 4.81397 127.385 4.97094 127.085 5.10176L127.644 4.86629C127.385 4.97094 127.137 5.08868 126.878 5.19333L127.427 4.95786C127.344 4.99711 127.251 5.03635 127.168 5.06251C126.702 5.23257 126.133 5.50728 125.781 5.95205C125.564 6.21368 125.367 6.50147 125.367 6.90699C125.346 7.03781 125.367 7.15554 125.439 7.26019C125.501 7.45641 125.626 7.58722 125.791 7.66571C126.216 7.90118 126.712 7.92734 127.168 7.84885C128.503 7.60031 129.849 7.01164 130.966 6.01746C131.246 5.76891 131.536 5.50728 131.795 5.21949C132.167 4.81397 132.664 4.31687 132.55 3.62356C132.519 3.4535 132.467 3.28344 132.395 3.12647C132.271 2.85176 132.146 2.57705 131.96 2.35467C130.935 1.1381 129.404 1.11193 128.11 1.49129C126.816 1.87065 125.501 2.90408 125.139 4.5785C125.036 5.04943 125.036 5.61193 125.119 6.08286C125.15 6.266 125.201 6.43606 125.274 6.60612C125.388 6.88083 125.512 7.15554 125.688 7.36484C126.681 8.59449 128.286 8.50292 129.528 8.12356C130.77 7.7442 132.167 6.7631 132.571 5.12792C132.799 4.19914 132.488 3.17879 131.991 2.48548C131.173 1.37356 129.828 1.02036 128.679 1.28199C127.665 1.50437 126.609 1.96222 125.874 2.93025C125.636 3.2442 125.408 3.57123 125.243 3.96368C125.098 4.32996 124.953 4.69624 124.86 5.08868C124.705 5.71658 125.284 6.16135 125.698 6.22676C126.009 6.266 126.309 6.33141 126.619 6.31833C127.168 6.29217 127.623 6.22676 128.162 6.06978C128.824 5.88664 129.497 5.53344 130.066 5.0756C130.377 4.82705 130.811 4.40844 130.894 3.91135C130.966 3.47967 130.759 3.1003 130.449 2.93025C130.014 2.6817 129.486 2.65554 129.01 2.73403C128.441 2.83868 127.851 3.0349 127.365 3.44042L127.375 3.40118Z" fill="#D5B8F0"/>
    <path d="M145.291 6.09588C156.179 5.57263 167.089 5.71652 177.967 6.55373C178.888 6.61914 180.358 6.12204 180.855 5.03629C181.372 3.89821 180.41 3.46652 179.664 3.4142C168.786 2.57699 157.877 2.42001 146.988 2.95635C146.046 3.00867 144.628 3.30954 144.1 4.47379C143.614 5.54646 144.514 6.13513 145.291 6.09588Z" fill="#D5B8F0"/>
  </g>
  <defs>
    <clipPath id="clip0_719_16371">
      <rect width="181" height="9" fill="white"/>
    </clipPath>
  </defs>
</svg>
