<svg width="202" height="157" viewBox="0 0 202 157" fill="none" xmlns="http://www.w3.org/2000/svg">
  <g clip-path="url(#clip0_849_1699)">
    <path d="M16.2757 55.4984C24.3084 42.4876 32.9964 29.9206 42.2766 17.794L31.2515 14.053C30.0525 25.039 26.482 35.5087 23.957 46.2539C22.7329 51.4191 21.7712 56.6373 21.5374 61.9479C21.2736 67.5362 21.5676 72.1017 26.411 75.5542C28.2507 76.8787 33.4536 78.2424 35.3238 76.0746C41.6267 68.8227 47.714 61.3806 53.5224 53.7448C59.3308 46.1089 65.367 38.4734 70.1744 30.2596C72.5607 26.1262 61.7616 22.6141 59.4391 25.7346C53.7284 33.4268 48.5712 41.5698 42.7872 49.2198C37.0032 56.8697 30.9159 64.3118 24.6374 71.5778L33.5501 72.0982C32.9437 71.6824 32.9897 67.5429 32.9945 66.4632C33.0224 64.2158 33.2393 61.9791 33.5194 59.7461C34.138 54.9531 35.2081 50.2238 36.4002 45.5651C38.8028 36.1597 41.7199 26.8217 42.6987 17.1192C43.0826 13.2403 33.8723 10.4159 31.6737 13.3782C22.5196 25.512 13.9293 38.1353 5.95958 51.1498C3.56078 55.0791 14.3315 58.6404 16.2757 55.4984Z" fill="#F6ECC9"/>
    <path d="M77.2875 50.5368C72.7948 56.5704 68.4242 62.6745 64.1126 68.8455C61.969 71.938 59.8498 75.0446 57.7551 78.1653C56.1495 80.5516 53.605 83.3798 53.1794 86.3161C52.6287 90.033 55.596 92.3367 58.4345 94.0739C61.5315 95.9275 64.8335 97.5387 68.2082 98.7982C75.1429 101.391 82.882 103.268 90.3417 102.753C91.9052 102.638 94.4502 102.008 93.5205 99.8971C92.5908 97.7857 89.4806 96.7445 87.4674 96.5663C82.1212 96.0712 77.0027 95.5763 72.0981 93.696C69.8869 92.8458 67.1896 91.8789 65.309 90.3996C64.6578 89.8923 64.5845 89.85 64.7887 88.8198C64.9928 87.7895 65.6383 86.7844 66.2127 85.9023C73.1015 75.3802 80.3668 65.1082 87.8478 55.0264C90.56 51.3437 79.5958 47.441 77.2591 50.586L77.2875 50.5368Z" fill="#F6ECC9"/>
    <path d="M74.4656 80.4007L87.295 79.6068C89.3912 79.4721 91.4874 79.3374 93.608 79.2167C95.9848 79.0472 98.4451 78.9586 100.779 78.469C102.305 78.1366 103.674 76.8932 102.558 75.3303C101.314 73.5949 98.712 72.5191 96.646 72.376C91.9954 72.0857 87.3111 72.5304 82.6734 72.838L69.844 73.6319C68.8274 73.7011 67.3615 73.8717 66.6264 74.6939C65.9868 75.4071 66.0632 76.4025 66.5968 77.1698C68.2017 79.4086 71.8224 80.5805 74.49 80.4148L74.4656 80.4007Z" fill="#F6ECC9"/>
    <path d="M88.2178 56.3559C93.0269 56.5409 97.8604 56.74 102.669 56.925L109.762 57.2146C112.147 57.3124 114.612 57.5544 116.993 57.3216C118.57 57.1827 121.164 56.5808 120.224 54.4308C119.284 52.2808 116.152 51.3908 114.098 51.0578C111.253 50.6289 108.341 50.6536 105.476 50.5412L98.3835 50.2516C93.4869 50.0489 88.5762 49.8708 83.7041 49.6822C81.8618 49.6027 78.9537 50.9745 80.524 53.1604C82.2226 55.5188 85.5418 56.2543 88.2564 56.3454L88.2178 56.3559Z" fill="#F6ECC9"/>
    <path d="M132.322 65.2213L122.945 100.353L118.351 117.613C117.258 121.706 115.732 126.434 119.77 129.422C122.129 131.144 127.514 133.433 130.099 130.76L156.811 103.045L145.304 99.1237L143.353 114.006C142.772 118.394 141.788 122.976 142.114 127.429C142.385 131.358 144.264 134.87 147.42 137.185C151.702 140.313 156.499 140.688 161.236 138.404C168.804 134.769 174.352 126.851 179.886 120.763L200.451 98.2245C203.536 94.8552 192.211 90.4491 189.37 93.5655L168.829 116.118C165.606 119.67 162.404 123.299 159.073 126.756C156.393 129.538 153.442 132.394 149.608 133.396L155.607 134.169C154.5 133.662 154.065 130.13 154.005 128.881C153.855 126.039 154.484 123.089 154.838 120.276L157.213 102.292C157.789 97.9671 148.238 95.7331 145.705 98.3715L118.993 126.087L129.322 127.425C128.573 126.861 129.315 124.337 129.596 123.285C130.296 120.606 131.021 117.941 131.746 115.276L135.856 99.8688L144.241 68.4288C145.352 64.2483 133.395 61.0513 132.308 65.2459L132.322 65.2213Z" fill="#F6ECC9"/>
  </g>
  <defs>
    <clipPath id="clip0_849_1699">
      <rect width="192" height="70" fill="white" transform="translate(35.4922) rotate(30)"/>
    </clipPath>
  </defs>
</svg>
