<svg width="136" height="160" viewBox="0 0 136 160" fill="none" xmlns="http://www.w3.org/2000/svg">
  <g clip-path="url(#clip0_849_1678)">
    <path d="M35.2225 59.6541C61.0032 45.064 86.7839 30.4739 112.565 15.8838C119.874 11.7409 127.217 7.63077 134.477 3.38965C135.477 2.81653 136.297 1.62115 135.051 0.851528C133.805 0.0819035 131.609 0.818778 130.445 1.4574C104.468 15.72 78.8022 30.5885 53.0215 45.1786L31.0268 57.6236C29.9779 58.2131 29.142 59.4904 30.4368 60.2764C31.7316 61.0624 34.0425 60.3255 35.2553 59.6377L35.2225 59.6541Z" fill="#F6ECC9"/>
    <path d="M129.658 2.66898C129.215 36.9091 128.445 71.1492 127.331 105.373C127.019 115.149 126.659 124.925 126.298 134.701C126.2 137.288 132.542 136.011 132.624 133.915C133.936 99.6908 134.902 65.4671 135.542 31.227C135.722 21.4511 135.869 11.6588 136.001 1.88298C136.033 -0.720642 129.691 0.589357 129.674 2.66898H129.658Z" fill="#F6ECC9"/>
    <path d="M30.1228 59.5557C57.0344 77.7483 81.4875 99.1995 106.268 120.11C113.218 125.973 120.216 131.802 127.296 137.517C128.427 138.434 130.246 138.123 131.492 137.582C132.115 137.32 134.311 135.961 133.18 135.044C107.711 114.477 83.4542 92.4039 57.4277 72.5247C50.1508 66.9735 42.7427 61.6025 35.1544 56.4772C33.4499 55.3309 27.5988 57.8363 30.1228 59.5393V59.5557Z" fill="#F6ECC9"/>
    <path d="M129.231 1.73564C110.694 22.2699 92.4854 43.0989 74.6044 64.1898C69.5073 70.1995 64.4429 76.2418 59.395 82.3006C58.4116 83.4796 60.2308 84.1182 61.1159 84.1673C62.6237 84.2492 64.3282 83.6106 65.2952 82.448C82.9958 61.1932 101.008 40.2005 119.364 19.5025C124.592 13.6075 129.853 7.72888 135.131 1.86664C136.18 0.704011 134.246 0.0490117 133.41 -0.000113263C131.853 -0.0819882 130.263 0.589386 129.231 1.71926V1.73564Z" fill="#F6ECC9"/>
    <path d="M121.906 5.91142C111.057 30.3593 100.698 55.0528 90.8975 79.9427C88.1113 87.0004 85.3742 94.0744 82.67 101.165C82.1455 102.524 84.7023 102.589 85.407 102.524C86.7346 102.376 88.4882 101.738 89.0127 100.379C98.535 75.3741 108.565 50.566 119.137 25.9872C122.136 19.0114 125.168 12.0684 128.249 5.12542C128.839 3.78267 126.151 3.70079 125.512 3.76629C124.119 3.93004 122.513 4.56867 121.906 5.91142Z" fill="#F6ECC9"/>
    <path d="M81.9464 99.6747C77.472 106.307 72.6699 112.676 67.9825 119.161C67.1467 120.307 68.6873 120.897 69.6051 120.929C71.031 120.979 72.6535 120.422 73.5714 119.292C78.6029 113.069 83.1756 106.438 87.6499 99.8057C88.453 98.6103 86.9616 98.0372 85.9946 98.0044C84.6507 97.9717 82.7495 98.4793 81.9464 99.6747Z" fill="#F6ECC9"/>
    <path d="M61.4436 84.7077C62.935 98.0205 64.0495 111.448 66.049 124.712C66.3604 126.775 72.2279 125.301 72.064 123.107C71.0478 109.729 69.1467 96.383 67.6388 83.0538C67.4094 81.0069 61.1814 82.3824 61.4436 84.7077Z" fill="#F6ECC9"/>
    <path d="M76.2426 122.092C79.0124 119.554 81.8806 117.13 84.847 114.821C87.8135 112.512 90.862 110.564 93.9596 108.288C94.8774 107.6 94.6971 106.552 93.6646 106.208C92.3534 105.766 90.7309 106.208 89.5836 106.879C86.191 108.844 82.995 111.301 79.8974 113.691C76.7998 116.082 73.9808 118.489 71.1782 121.06C70.834 121.371 70.4079 121.912 70.5554 122.419C70.7029 122.927 71.3257 123.189 71.7846 123.287C73.2105 123.598 75.1609 123.091 76.259 122.092H76.2426Z" fill="#F6ECC9"/>
    <path d="M81.9306 112.611C83.8809 110.744 85.8477 108.894 87.798 107.011C88.1094 106.699 88.5028 106.241 88.3717 105.75C88.2405 105.258 87.6669 105.029 87.2408 104.947C86.5196 104.816 85.7493 104.865 85.061 105.078C84.3726 105.291 83.6351 105.553 83.1106 106.061C81.1275 107.911 79.1608 109.778 77.194 111.645C76.8662 111.956 76.4729 112.431 76.604 112.922C76.7351 113.413 77.3251 113.659 77.7513 113.741C78.4724 113.872 79.2591 113.823 79.9638 113.61C80.6686 113.397 81.4061 113.118 81.9306 112.611Z" fill="#F6ECC9"/>
    <path d="M74.509 115.673L73.9189 115.968C73.2634 116.295 74.3451 115.755 73.8206 116.017L77.328 117.703C80.6058 114.134 84.0149 110.695 87.4894 107.305C87.8008 106.994 88.1942 106.536 88.0631 106.044C87.9319 105.553 87.3583 105.324 86.9322 105.242C85.6046 104.996 83.8018 105.389 82.7856 106.355C79.2619 109.68 75.8857 113.167 72.6242 116.754C72.3619 117.048 71.8702 117.54 72.0505 118.014C72.198 118.407 72.5258 118.604 72.9192 118.735C74.1976 119.144 75.6726 118.735 76.8035 118.096C77.246 117.851 77.6885 117.638 78.1146 117.409C78.9177 116.983 79.8355 115.689 78.6227 115.132C77.2952 114.543 75.7054 115.067 74.4926 115.673H74.509Z" fill="#F6ECC9"/>
    <path d="M85.2902 110.416C86.5685 108.37 87.8469 106.323 89.0761 104.243C89.3056 103.834 89.4039 103.408 89.0761 103.015C88.7483 102.622 87.9616 102.491 87.47 102.491C86.6833 102.491 85.8638 102.622 85.1427 102.949C84.5526 103.211 83.9134 103.555 83.5529 104.112C82.2253 106.143 80.9633 108.222 79.6849 110.285C79.4391 110.695 79.3572 111.137 79.6849 111.53C80.0127 111.923 80.8158 112.054 81.3075 112.054C82.1106 112.054 82.9465 111.923 83.6676 111.579C84.2576 111.317 84.9296 110.973 85.2902 110.4V110.416Z" fill="#F6ECC9"/>
    <path d="M84.4229 106.536C85.308 107.616 86.193 108.697 87.1108 109.761C87.2911 109.942 87.5206 110.073 87.7828 110.122C88.0778 110.236 88.3892 110.285 88.717 110.285C89.1103 110.285 89.4873 110.253 89.8643 110.171C90.274 110.105 90.6673 109.991 91.0443 109.827L91.7163 109.483C92.0768 109.27 92.3882 109.008 92.6341 108.664L92.8308 108.239C92.8963 107.944 92.8307 107.682 92.6177 107.453C91.7654 106.355 90.8804 105.275 90.0118 104.21C89.8151 104.014 89.602 103.899 89.3398 103.85C89.0448 103.735 88.717 103.686 88.3892 103.686C87.9959 103.686 87.6025 103.719 87.2255 103.801C86.8158 103.866 86.4225 103.981 86.0291 104.145L85.3571 104.489C84.9966 104.702 84.6852 104.98 84.4229 105.307L84.2099 105.75C84.1443 106.061 84.2099 106.323 84.4229 106.552V106.536Z" fill="#F6ECC9"/>
    <path d="M8.19451 82.2841L0.589786 89.8821C0.278386 90.1932 -0.114962 90.6354 0.0161538 91.1266C0.14727 91.5851 0.720902 91.8471 1.13064 91.9126C1.83539 92.0436 2.5893 91.9945 3.27766 91.7816C3.96602 91.5687 4.70355 91.3231 5.19523 90.8155L12.8163 83.2175C13.1277 82.9064 13.5211 82.4643 13.39 81.973C13.2589 81.5145 12.6852 81.2525 12.2755 81.187C11.5707 81.056 10.8168 81.1051 10.1285 81.318C9.44011 81.5309 8.70258 81.7765 8.2109 82.2841H8.19451Z" fill="#F6ECC9"/>
    <path d="M32.3518 95.6954L18.4863 109.565C18.1749 109.876 17.7815 110.318 17.9126 110.826C18.0438 111.284 18.6174 111.546 19.0435 111.628C20.3383 111.874 22.1903 111.497 23.1573 110.531L37.0392 96.6615C37.3506 96.3504 37.7439 95.8919 37.6128 95.4006C37.4817 94.9257 36.9081 94.6801 36.4819 94.5982C35.1872 94.3526 33.3188 94.7292 32.3518 95.7117V95.6954Z" fill="#F6ECC9"/>
    <path d="M81.1273 130.59C76.8005 135.355 72.4737 140.137 68.1632 144.902C67.8518 145.23 67.4421 145.655 67.5896 146.163C67.7207 146.638 68.3107 146.883 68.7205 146.965C69.9661 147.195 71.9492 146.851 72.867 145.852C77.2102 141.087 81.5371 136.305 85.8639 131.54C86.1753 131.196 86.585 130.787 86.4539 130.263C86.3228 129.788 85.7328 129.526 85.3066 129.444C84.0447 129.215 82.0451 129.559 81.1273 130.558V130.59Z" fill="#F6ECC9"/>
    <path d="M122.724 145.328C118.397 149.504 114.087 153.679 109.76 157.855C109.448 158.166 109.039 158.625 109.17 159.116C109.301 159.607 109.891 159.853 110.317 159.918C111.644 160.164 113.464 159.771 114.48 158.805C118.823 154.629 123.15 150.453 127.477 146.278C127.805 145.967 128.198 145.492 128.067 145.001C127.936 144.509 127.346 144.264 126.919 144.182C125.576 143.936 123.74 144.329 122.724 145.312V145.328Z" fill="#F6ECC9"/>
  </g>
  <defs>
    <clipPath id="clip0_849_1678">
      <rect width="136" height="160" fill="white"/>
    </clipPath>
  </defs>
</svg>
