<svg width="117" height="115" viewBox="0 0 117 115" fill="none" xmlns="http://www.w3.org/2000/svg">
  <g clip-path="url(#clip0_849_1664)">
    <path d="M32.1122 9.61025C22.015 26.177 1.85346 47.0466 15.2792 67.8447C20.8541 76.4714 31.4936 81.2086 41.5797 79.8516C51.0578 78.5712 58.6192 71.8762 64.3964 64.8537C72.9673 54.4027 79.1894 42.1067 82.7653 29.0774C83.8145 25.2528 72.4325 22.0729 71.464 25.9747C68.2804 38.65 62.4963 50.4044 54.231 60.543C51.0257 64.4672 47.4386 68.2931 43.0517 70.9546C39.8739 72.8781 35.267 75.107 31.4419 73.5402C27.1073 71.7709 24.1697 66.714 22.856 62.5334C21.1905 57.172 21.6635 51.5786 23.1717 46.308C26.6591 34.083 35.56 24.5253 42.05 13.8812C44.2872 10.2231 33.9364 6.72193 32.1093 9.66965L32.0858 9.65608L32.1122 9.61025Z" fill="#F6ECC9"/>
    <path d="M114.091 51.7467C101.846 69.2122 90.2194 87.1263 79.2268 105.407C77.0527 109.009 87.2024 112.425 88.9296 109.542C99.9223 91.2616 111.549 73.3475 123.794 55.882C126.15 52.5064 116.07 48.9168 114.091 51.7467Z" fill="#F6ECC9"/>
  </g>
  <defs>
    <clipPath id="clip0_849_1664">
      <rect width="104" height="72" fill="white" transform="translate(36) rotate(30)"/>
    </clipPath>
  </defs>
</svg>
