<svg xmlns="http://www.w3.org/2000/svg" width="141" height="81" viewBox="0 0 141 81" fill="none">
  <g clip-path="url(#clip0_938_5693)">
    <path d="M1.77496 12.7492C-0.392908 34.386 -1.82173 61.2068 18.9208 74.9823C28.085 81.0668 40.4517 81.724 50.2318 76.5643C60.0118 71.4045 62.9187 59.9655 64.2736 49.5001C66.1213 35.3108 66.2691 19.6613 62.6231 5.73979C61.7116 2.23507 51.8577 4.81493 52.375 8.44134C53.9763 19.7343 55.4544 30.6865 54.7399 42.1499C54.4197 47.3583 53.8038 52.5667 52.7938 57.7021C51.9562 62.0343 50.7491 66.4639 48.0146 70.0416C42.6935 76.9537 32.8642 74.1304 26.7794 69.7495C19.8816 64.7845 15.2995 57.0936 12.9592 49.0863C9.41177 36.8685 10.6682 23.9692 11.8753 11.4836C12.2694 7.49215 2.09521 9.3662 1.77496 12.7492V12.7492V12.7492Z" fill="#F6ECC9"/>
    <path d="M96.0279 64.5411C103.32 54.4407 110.39 44.1699 117.189 33.7288C120.589 28.496 123.915 23.239 127.166 17.9332C130.418 12.6275 133.916 7.6868 136.306 2.18634C137.143 0.312292 133.547 -0.00410611 132.611 0.0445705C130.492 0.166262 127.93 0.945088 126.624 2.72178C122.954 7.73547 120.096 13.455 116.82 18.7364C113.543 24.0178 110.415 28.9585 107.138 34.0208C100.438 44.2916 93.4905 54.392 86.2971 64.3464C84.8437 66.3421 87.5288 67.3156 89.1301 67.3643C91.4704 67.4617 94.5991 66.5125 96.0279 64.5411Z" fill="#F6ECC9"/>
    <path d="M86.3455 15.7425C94.2779 25.2101 101.939 34.848 109.305 44.7294C112.877 49.524 116.4 54.343 119.824 59.235C123.47 64.4191 126.796 69.9195 130.762 74.8845C132.61 77.1967 141.946 74.4465 140.419 71.6232C137.586 66.3661 133.915 61.4985 130.491 56.5821C126.845 51.3737 123.125 46.2384 119.332 41.1517C111.843 31.1243 104.083 21.3159 96.027 11.7023C93.7359 8.97642 83.7342 12.6028 86.3455 15.7425V15.7425Z" fill="#F6ECC9"/>
  </g>
  <defs>
    <clipPath id="clip0_938_5693">
      <rect width="140" height="80" fill="white" transform="translate(0.591797 0.0444946)"/>
    </clipPath>
  </defs>
</svg>
