<svg width="145" height="125" viewBox="0 0 145 125" fill="none" xmlns="http://www.w3.org/2000/svg">
  <g clip-path="url(#clip0_849_1660)">
    <path d="M-9.42875 60.6684C-3.85625 81.6873 4.22961 107.3 28.4897 112.909C39.2075 115.386 51.0166 111.656 58.3602 103.389C65.7038 95.1223 64.4063 83.3912 61.9977 73.117C58.7421 59.1832 53.382 44.4795 45.0771 32.7266C42.9923 29.7656 34.6731 35.6432 36.4316 38.8567C41.8986 48.867 47.1305 58.6016 50.4894 69.5851C52.0195 74.574 53.2729 79.6667 54.1316 84.8295C54.8696 89.1798 55.2958 93.7511 53.9927 98.0615C51.4394 106.402 41.2448 107.213 34.0087 105.249C25.8062 103.024 18.8141 97.4336 13.8096 90.7591C6.19555 80.5666 2.83961 68.0483 -0.417086 55.9347C-1.45048 52.0592 -10.3176 57.3885 -9.42875 60.6684Z" fill="#F6ECC9"/>
    <path d="M97.0113 76.0421C100.29 64.0237 103.3 51.9236 105.997 39.7592C107.342 33.6656 108.608 27.5752 109.789 21.4652C110.969 15.3552 112.508 9.50047 112.813 3.51112C112.939 1.46227 109.46 2.42975 108.601 2.80424C106.66 3.66255 104.535 5.2919 103.937 7.41406C102.262 13.3978 101.596 19.7567 100.384 25.8525C99.172 31.9484 97.9788 37.6733 96.6899 43.5641C94.0251 55.5344 91.0698 67.4316 87.8325 79.2788C87.173 81.658 90.029 81.626 91.5453 81.1089C93.7706 80.3778 96.3663 78.3899 97.0113 76.0421Z" fill="#F6ECC9"/>
    <path d="M70.8015 33.7569C81.5546 39.8338 92.1139 46.1654 102.482 52.8287C107.511 56.0626 112.502 59.3366 117.427 62.7136C122.662 66.2861 127.708 70.2674 133.166 73.5223C135.708 75.0378 143.483 69.1825 141.061 67.0759C136.562 63.1494 131.415 59.8818 126.482 56.482C121.238 52.8867 115.951 49.3857 110.612 45.9563C100.077 39.1995 89.366 32.743 78.4462 26.5727C75.3435 24.8255 67.2535 31.7349 70.8015 33.7569Z" fill="#F6ECC9"/>
  </g>
  <defs>
    <clipPath id="clip0_849_1660">
      <rect width="140" height="80" fill="white" transform="translate(-15 49.1895) rotate(-20.5701)"/>
    </clipPath>
  </defs>
</svg>
